<svg width="1440" height="80" viewBox="0 0 1440 80" fill="none" xmlns="http://www.w3.org/2000/svg">
<rect width="1440" height="80" fill="#007CBD"/>
<g clip-path="url(#clip0_115_2157)">
<path d="M172.197 24.468C171.66 24.87 170.984 25.0722 170.171 25.0722C169.597 25.0722 169.099 24.9807 168.678 24.7978C168.257 24.6148 167.902 24.3572 167.615 24.0274C167.328 23.6976 167.114 23.3028 166.971 22.8454C166.827 22.3881 166.747 21.8873 166.728 21.3481C166.728 20.8089 166.81 20.3129 166.978 19.8652C167.146 19.4174 167.38 19.0274 167.679 18.6976C167.98 18.3678 168.335 18.1103 168.749 17.9273C169.16 17.7443 169.612 17.6529 170.103 17.6529C170.743 17.6529 171.271 17.7829 171.694 18.0453C172.115 18.3052 172.453 18.6375 172.708 19.0419C172.963 19.4439 173.138 19.8844 173.236 20.3611C173.333 20.8377 173.372 21.2903 173.355 21.7212H167.983C167.973 22.0318 168.009 22.3279 168.095 22.6071C168.177 22.8864 168.311 23.1343 168.498 23.3486C168.683 23.5628 168.919 23.7362 169.206 23.8637C169.493 23.9913 169.831 24.0563 170.22 24.0563C170.719 24.0563 171.13 23.9408 171.448 23.7121C171.767 23.4834 171.978 23.1343 172.081 22.6673H173.245C173.087 23.4641 172.742 24.0636 172.205 24.468H172.197ZM171.913 19.9061C171.806 19.6582 171.662 19.4463 171.482 19.2682C171.302 19.09 171.088 18.948 170.843 18.8421C170.597 18.7362 170.327 18.6832 170.03 18.6832C169.734 18.6832 169.449 18.7362 169.204 18.8421C168.958 18.948 168.749 19.0924 168.571 19.2754C168.396 19.4584 168.257 19.6726 168.155 19.9133C168.053 20.1565 167.992 20.4141 167.975 20.6885H172.098C172.078 20.4141 172.017 20.1517 171.91 19.9061H171.913Z" fill="white"/>
<mask id="mask0_115_2157" style="mask-type:luminance" maskUnits="userSpaceOnUse" x="166" y="17" width="8" height="9">
<path d="M172.197 24.468C171.66 24.87 170.984 25.0722 170.171 25.0722C169.597 25.0722 169.099 24.9807 168.678 24.7978C168.257 24.6148 167.902 24.3572 167.615 24.0274C167.328 23.6976 167.114 23.3028 166.971 22.8454C166.827 22.3881 166.747 21.8873 166.728 21.3481C166.728 20.8089 166.81 20.3129 166.978 19.8652C167.146 19.4174 167.38 19.0274 167.679 18.6976C167.98 18.3678 168.335 18.1103 168.749 17.9273C169.16 17.7443 169.612 17.6529 170.103 17.6529C170.743 17.6529 171.271 17.7829 171.694 18.0453C172.115 18.3052 172.453 18.6375 172.708 19.0419C172.963 19.4439 173.138 19.8844 173.236 20.3611C173.333 20.8377 173.372 21.2903 173.355 21.7212H167.983C167.973 22.0318 168.009 22.3279 168.095 22.6071C168.177 22.8864 168.311 23.1343 168.498 23.3486C168.683 23.5628 168.919 23.7362 169.206 23.8637C169.493 23.9913 169.831 24.0563 170.22 24.0563C170.719 24.0563 171.13 23.9408 171.448 23.7121C171.767 23.4834 171.978 23.1343 172.081 22.6673H173.245C173.087 23.4641 172.742 24.0636 172.205 24.468H172.197ZM171.913 19.9061C171.806 19.6582 171.662 19.4463 171.482 19.2682C171.302 19.09 171.088 18.948 170.843 18.8421C170.597 18.7362 170.327 18.6832 170.03 18.6832C169.734 18.6832 169.449 18.7362 169.204 18.8421C168.958 18.948 168.749 19.0924 168.571 19.2754C168.396 19.4584 168.257 19.6726 168.155 19.9133C168.053 20.1565 167.992 20.4141 167.975 20.6885H172.098C172.078 20.4141 172.017 20.1517 171.91 19.9061H171.913Z" fill="white"/>
</mask>
<g mask="url(#mask0_115_2157)">
<path d="M173.676 20.5657H167.552V21.9884H173.676V20.5657Z" fill="white"/>
<path d="M168.965 25.3876L172.985 25.3274L173.513 22.5301H172.017L171.58 22.9225H168.508L168.965 25.3876Z" fill="white"/>
<path d="M171.896 25.3563C171.896 25.3563 165.799 23.5604 169.301 18.7265C170.502 17.0679 169.228 17.2966 168.124 18.1825C166.412 19.557 166.305 21.3385 166.305 21.3385L166.91 23.883L168.834 25.3779L171.896 25.3539V25.3563Z" fill="white"/>
<path opacity="0.15" d="M169.87 23.4449C169.87 23.4449 168.233 22.7154 168.238 22.7877C168.323 23.8469 170.176 25.26 171.913 23.1223C172.022 22.9875 171.29 22.8045 171.29 22.8045C171.29 22.8045 170.405 22.8045 169.87 23.4449Z" fill="white"/>
<path d="M171.331 19.6196C171.331 19.6196 165.556 17.4603 167.572 24.9206C167.572 24.9206 164.695 19.7304 167.718 18.0549C170.779 16.3553 173.192 18.1247 173.192 18.1247L171.329 19.6196H171.331Z" fill="white"/>
<path d="M171.524 19.48C171.319 19.2537 170.745 18.9745 170.451 18.8902C169.692 18.6663 168.243 18.7386 167.29 18.9023C166.511 19.0371 167.688 17.6649 168.598 17.5012C169.819 17.2821 171.847 17.5758 171.847 17.5758L173.727 18.9528L173.639 21.9234C173.639 21.9234 172.375 21.4179 171.918 20.3081C171.83 20.0963 171.677 19.6533 171.524 19.4824V19.48Z" fill="white"/>
<path opacity="0.1" d="M173.382 20.6789C172.793 19.0708 171.207 16.8705 166.655 18.2932C166.453 18.3558 167.662 17.5012 167.803 17.4747C170.266 17.0173 173.134 17.3279 173.788 20.5152L173.382 20.6789Z" fill="white"/>
<path d="M168.965 22.0823C168.501 22.1618 167.99 22.4892 167.944 21.8296C167.898 21.1699 168.014 20.4068 168.129 20.3611C168.245 20.3153 168.836 20.3948 169.23 20.3948C169.877 20.3948 169.452 21.3698 171.677 21.9451C172.421 22.1377 168.963 22.0823 168.963 22.0823H168.965Z" fill="white"/>
</g>
<path d="M154.067 17.8166V18.9432H154.094C154.585 18.0814 155.361 17.6505 156.426 17.6505C156.898 17.6505 157.292 17.7154 157.606 17.843C157.919 17.9706 158.175 18.1512 158.369 18.3799C158.564 18.6086 158.7 18.8806 158.778 19.1984C158.856 19.5137 158.897 19.8652 158.897 20.2504V24.923H157.717V20.1131C157.717 19.6726 157.589 19.3259 157.328 19.0684C157.068 18.8132 156.713 18.6832 156.258 18.6832C155.898 18.6832 155.585 18.7386 155.322 18.8493C155.059 18.96 154.838 19.1141 154.663 19.3163C154.488 19.5185 154.354 19.7544 154.267 20.0241C154.179 20.2937 154.135 20.5898 154.135 20.91V24.923H152.956V17.8166H154.067Z" fill="white"/>
<mask id="mask1_115_2157" style="mask-type:luminance" maskUnits="userSpaceOnUse" x="152" y="17" width="7" height="8">
<path d="M154.067 17.8166V18.9432H154.094C154.585 18.0814 155.361 17.6505 156.426 17.6505C156.898 17.6505 157.292 17.7154 157.606 17.843C157.919 17.9706 158.175 18.1512 158.369 18.3799C158.564 18.6086 158.7 18.8806 158.778 19.1984C158.856 19.5137 158.897 19.8652 158.897 20.2504V24.923H157.717V20.1131C157.717 19.6726 157.589 19.3259 157.328 19.0684C157.068 18.8132 156.713 18.6832 156.258 18.6832C155.898 18.6832 155.585 18.7386 155.322 18.8493C155.059 18.96 154.838 19.1141 154.663 19.3163C154.488 19.5185 154.354 19.7544 154.267 20.0241C154.179 20.2937 154.135 20.5898 154.135 20.91V24.923H152.956V17.8166H154.067Z" fill="white"/>
</mask>
<g mask="url(#mask1_115_2157)">
<path d="M157.501 25.0963L159.223 25.0843V19.1237L157.246 18.558L157.501 25.0963Z" fill="white"/>
<path d="M154.544 25.1348C154.544 25.1348 155.154 23.144 157.117 17.3616C157.586 15.975 152.62 17.7275 152.62 17.7275L152.71 25.1107L154.546 25.1348H154.544Z" fill="white"/>
<path d="M156.572 19.0419C157.095 19.0467 152.914 17.7299 153.804 25.3731C153.804 25.3731 153.228 26.0062 152.708 25.1083C152.678 25.0578 152.688 18.0212 152.727 17.9971C152.912 17.8815 153.121 17.778 153.354 17.689C157.829 15.9557 159.799 18.6543 159.799 18.6543L156.572 19.0443V19.0419Z" fill="white"/>
<path d="M155.127 19.4848C155.127 19.4848 154.286 20.2167 153.802 19.208C152.951 17.4314 156.611 17.1136 156.611 17.1136L159.293 17.7636L159.386 24.687C159.386 24.687 158.063 20.544 157.936 20.1709C157.326 18.3678 155.108 19.0708 155.127 19.4872V19.4848Z" fill="white"/>
<path opacity="0.1" d="M159.191 19.2682C158.162 18.4015 155.806 17.0462 152.81 19.3548C152.788 19.3717 152.778 17.6697 152.81 17.6625C154.612 17.1569 157.161 17.0125 159.072 17.8671C159.111 17.8839 159.118 17.9369 159.14 17.973C159.378 18.3582 159.22 19.2898 159.191 19.2657V19.2682Z" fill="white"/>
</g>
<path d="M152.263 24.8941C152.058 25.012 151.776 25.0722 151.416 25.0722C151.11 25.0722 150.869 24.988 150.687 24.817C150.507 24.6485 150.417 24.3717 150.417 23.9865C150.093 24.3717 149.716 24.6485 149.286 24.817C148.855 24.9856 148.391 25.0722 147.89 25.0722C147.566 25.0722 147.258 25.0361 146.966 24.9615C146.674 24.8893 146.421 24.7737 146.209 24.6172C145.995 24.4608 145.828 24.2585 145.704 24.0058C145.58 23.753 145.516 23.4497 145.516 23.091C145.516 22.689 145.587 22.3592 145.726 22.1016C145.864 21.844 146.047 21.637 146.273 21.4757C146.499 21.3144 146.759 21.194 147.051 21.1122C147.343 21.0303 147.642 20.9605 147.946 20.9051C148.269 20.8402 148.578 20.792 148.87 20.7607C149.162 20.7294 149.417 20.6837 149.641 20.6235C149.862 20.5633 150.04 20.4766 150.169 20.3635C150.298 20.248 150.363 20.0818 150.363 19.8628C150.363 19.6076 150.315 19.4006 150.217 19.2441C150.12 19.0876 149.996 18.9697 149.843 18.8878C149.69 18.806 149.519 18.7506 149.33 18.7217C149.14 18.6952 148.953 18.6808 148.768 18.6808C148.269 18.6808 147.851 18.7747 147.518 18.9624C147.185 19.1502 147.005 19.5041 146.976 20.0265H145.796C145.815 19.5859 145.908 19.2152 146.073 18.9143C146.241 18.611 146.462 18.3678 146.74 18.1801C147.017 17.9923 147.333 17.8575 147.691 17.7756C148.046 17.6938 148.427 17.6529 148.836 17.6529C149.159 17.6529 149.48 17.6769 149.801 17.7227C150.12 17.7684 150.409 17.8623 150.67 18.0043C150.927 18.1464 151.137 18.3438 151.295 18.6013C151.453 18.8565 151.531 19.1911 151.531 19.6028V23.2499C151.531 23.5243 151.548 23.7241 151.579 23.8541C151.611 23.9817 151.72 24.0467 151.905 24.0467C152.007 24.0467 152.126 24.0274 152.265 23.9913V24.8989L152.263 24.8941ZM150.346 21.2518C150.198 21.3601 150.003 21.442 149.763 21.4901C149.522 21.5407 149.269 21.5816 149.006 21.6129C148.744 21.6442 148.476 21.6803 148.209 21.7212C147.941 21.7622 147.7 21.8272 147.486 21.9186C147.272 22.0101 147.1 22.1401 146.966 22.3086C146.832 22.4771 146.764 22.7082 146.764 22.9995C146.764 23.1921 146.803 23.3534 146.883 23.4858C146.961 23.6182 147.063 23.7241 147.19 23.8084C147.314 23.8902 147.459 23.9504 147.627 23.9865C147.793 24.0226 147.97 24.0419 148.155 24.0419C148.544 24.0419 148.877 23.9889 149.155 23.8854C149.432 23.7795 149.658 23.6495 149.835 23.4882C150.011 23.3293 150.142 23.156 150.225 22.9682C150.307 22.7805 150.349 22.6047 150.349 22.441V21.2518H150.346Z" fill="white"/>
<mask id="mask2_115_2157" style="mask-type:luminance" maskUnits="userSpaceOnUse" x="145" y="17" width="8" height="9">
<path d="M152.263 24.8941C152.058 25.012 151.776 25.0722 151.416 25.0722C151.11 25.0722 150.869 24.988 150.687 24.817C150.507 24.6485 150.417 24.3717 150.417 23.9865C150.093 24.3717 149.716 24.6485 149.286 24.817C148.855 24.9856 148.391 25.0722 147.89 25.0722C147.566 25.0722 147.258 25.0361 146.966 24.9615C146.674 24.8893 146.421 24.7737 146.209 24.6172C145.995 24.4608 145.828 24.2585 145.704 24.0058C145.58 23.753 145.516 23.4497 145.516 23.091C145.516 22.689 145.587 22.3592 145.726 22.1016C145.864 21.844 146.047 21.637 146.273 21.4757C146.499 21.3144 146.759 21.194 147.051 21.1122C147.343 21.0303 147.642 20.9605 147.946 20.9051C148.269 20.8402 148.578 20.792 148.87 20.7607C149.162 20.7294 149.417 20.6837 149.641 20.6235C149.862 20.5633 150.04 20.4766 150.169 20.3635C150.298 20.248 150.363 20.0818 150.363 19.8628C150.363 19.6076 150.315 19.4006 150.217 19.2441C150.12 19.0876 149.996 18.9697 149.843 18.8878C149.69 18.806 149.519 18.7506 149.33 18.7217C149.14 18.6952 148.953 18.6808 148.768 18.6808C148.269 18.6808 147.851 18.7747 147.518 18.9624C147.185 19.1502 147.005 19.5041 146.976 20.0265H145.796C145.815 19.5859 145.908 19.2152 146.073 18.9143C146.241 18.611 146.462 18.3678 146.74 18.1801C147.017 17.9923 147.333 17.8575 147.691 17.7756C148.046 17.6938 148.427 17.6529 148.836 17.6529C149.159 17.6529 149.48 17.6769 149.801 17.7227C150.12 17.7684 150.409 17.8623 150.67 18.0043C150.927 18.1464 151.137 18.3438 151.295 18.6013C151.453 18.8565 151.531 19.1911 151.531 19.6028V23.2499C151.531 23.5243 151.548 23.7241 151.579 23.8541C151.611 23.9817 151.72 24.0467 151.905 24.0467C152.007 24.0467 152.126 24.0274 152.265 23.9913V24.8989L152.263 24.8941ZM150.346 21.2518C150.198 21.3601 150.003 21.442 149.763 21.4901C149.522 21.5407 149.269 21.5816 149.006 21.6129C148.744 21.6442 148.476 21.6803 148.209 21.7212C147.941 21.7622 147.7 21.8272 147.486 21.9186C147.272 22.0101 147.1 22.1401 146.966 22.3086C146.832 22.4771 146.764 22.7082 146.764 22.9995C146.764 23.1921 146.803 23.3534 146.883 23.4858C146.961 23.6182 147.063 23.7241 147.19 23.8084C147.314 23.8902 147.459 23.9504 147.627 23.9865C147.793 24.0226 147.97 24.0419 148.155 24.0419C148.544 24.0419 148.877 23.9889 149.155 23.8854C149.432 23.7795 149.658 23.6495 149.835 23.4882C150.011 23.3293 150.142 23.156 150.225 22.9682C150.307 22.7805 150.349 22.6047 150.349 22.441V21.2518H150.346Z" fill="white"/>
</mask>
<g mask="url(#mask2_115_2157)">
<path d="M151.706 18.4016C151.706 18.4016 150.461 20.0746 149.104 20.3394C147.746 20.6042 146.856 20.7583 146.856 20.7583L147.501 22.1016C147.501 22.1016 148.568 21.9475 149.079 21.7718C149.59 21.5961 151.258 21.3746 151.793 20.8041L151.703 18.404L151.706 18.4016Z" fill="white"/>
<path d="M152.661 23.7097C149.434 23.4689 146.163 21.7453 149.48 17.3447C149.563 17.234 147.469 17.299 147.282 17.4025C145.565 18.3582 144.541 20.6692 145.297 23.5989C145.832 25.6692 149.49 25.4839 152.528 25.1396C152.647 25.1252 152.72 23.7121 152.661 23.7073V23.7097Z" fill="white"/>
<path d="M151.995 22.3423C151.995 22.3423 147.943 27.2171 145.322 20.2504C145.295 20.1806 145.069 22.4795 145.076 22.5614C145.166 23.4858 145.164 24.1502 146.567 25.0506C148.97 26.5912 151.501 23.3582 151.995 22.3423Z" fill="white"/>
<path d="M146.723 25.118C146.723 25.118 146.603 24.1622 149.191 23.6206C149.191 23.6206 150.349 22.5205 150.264 19.338C150.264 19.338 153.038 21.7284 152.506 25.0313C152.506 25.0313 149.828 26.064 146.723 25.1204V25.118Z" fill="white"/>
<path d="M145.786 19.1237C146.881 18.7891 148.481 18.3678 149.772 19.0178C150.616 19.4439 151.463 21.1988 151.774 23.5315C151.784 23.6086 151.832 19.285 151.815 19.2393C151.662 18.7963 151.533 18.2306 151.083 17.9393C149.597 16.974 147.705 17.3881 146.479 17.9225C146.416 17.9514 145.713 19.1454 145.784 19.1237H145.786Z" fill="white"/>
<path opacity="0.2" d="M145.582 18.6712C145.582 18.6712 151.229 14.8483 152.574 22.5542C152.574 22.5542 153.136 18.611 150.767 17.1642C148.398 15.7174 146.008 17.908 145.582 18.6712Z" fill="white"/>
<path opacity="0.2" d="M145.487 23.5171C145.738 22.2942 146.492 20.9726 148.532 20.6692C148.739 20.6379 148.855 20.455 148.855 20.455C148.855 20.455 147.012 20.5826 146.299 21.0448C143.972 22.5566 145.473 23.5845 145.485 23.5171H145.487Z" fill="white"/>
<path opacity="0.3" d="M150.283 21.4396C150.283 21.4396 150.543 25.2287 146.903 22.9586C146.903 22.9586 146.99 24.6895 149.072 24.2152C150.619 23.8613 150.419 21.9042 150.285 21.4396H150.283Z" fill="white"/>
</g>
<path d="M139.704 17.8166V18.9432H139.731C140.222 18.0814 140.998 17.6505 142.063 17.6505C142.535 17.6505 142.929 17.7154 143.242 17.843C143.556 17.9706 143.812 18.1512 144.006 18.3799C144.201 18.6086 144.337 18.8806 144.415 19.1984C144.492 19.5137 144.534 19.8652 144.534 20.2504V24.923H143.354V20.1131C143.354 19.6726 143.225 19.3259 142.965 19.0684C142.705 18.8132 142.35 18.6832 141.895 18.6832C141.535 18.6832 141.222 18.7386 140.959 18.8493C140.696 18.96 140.475 19.1141 140.3 19.3163C140.125 19.5185 139.991 19.7544 139.903 20.0241C139.816 20.2937 139.772 20.5898 139.772 20.91V24.923H138.593V17.8166H139.704Z" fill="white"/>
<mask id="mask3_115_2157" style="mask-type:luminance" maskUnits="userSpaceOnUse" x="138" y="17" width="7" height="8">
<path d="M139.704 17.8166V18.9432H139.731C140.222 18.0814 140.998 17.6505 142.063 17.6505C142.535 17.6505 142.929 17.7154 143.242 17.843C143.556 17.9706 143.812 18.1512 144.006 18.3799C144.201 18.6086 144.337 18.8806 144.415 19.1984C144.492 19.5137 144.534 19.8652 144.534 20.2504V24.923H143.354V20.1131C143.354 19.6726 143.225 19.3259 142.965 19.0684C142.705 18.8132 142.35 18.6832 141.895 18.6832C141.535 18.6832 141.222 18.7386 140.959 18.8493C140.696 18.96 140.475 19.1141 140.3 19.3163C140.125 19.5185 139.991 19.7544 139.903 20.0241C139.816 20.2937 139.772 20.5898 139.772 20.91V24.923H138.593V17.8166H139.704Z" fill="white"/>
</mask>
<g mask="url(#mask3_115_2157)">
<path d="M143.121 25.1348L144.843 25.1204V19.1622L142.865 18.5965L143.121 25.1348Z" fill="white"/>
<path d="M140.164 25.1709C140.164 25.1709 140.774 23.1801 142.737 17.3977C143.206 16.0111 138.24 17.7636 138.24 17.7636L138.33 25.1468L140.166 25.1709H140.164Z" fill="white"/>
<path d="M142.192 19.0804C142.715 19.0852 138.534 17.7684 139.424 25.4116C139.424 25.4116 138.848 26.0448 138.327 25.1468C138.298 25.0963 138.308 18.0597 138.347 18.0356C138.532 17.9201 138.741 17.8165 138.974 17.7275C143.449 15.9942 145.419 18.6928 145.419 18.6928L142.192 19.0828V19.0804Z" fill="white"/>
<path d="M140.747 19.5233C140.747 19.5233 139.906 20.2552 139.422 19.2465C138.571 17.4699 142.231 17.1521 142.231 17.1521L144.913 17.8021L145.006 24.7256C145.006 24.7256 143.889 20.5272 143.763 20.1541C143.152 18.351 140.73 19.1117 140.747 19.5257V19.5233Z" fill="white"/>
<path opacity="0.1" d="M144.811 19.3067C143.782 18.44 141.426 17.0847 138.43 19.3933C138.408 19.4102 138.398 17.7082 138.43 17.701C140.232 17.1955 142.78 17.051 144.692 17.9056C144.731 17.9225 144.738 17.9754 144.76 18.0115C144.998 18.3967 144.84 19.3283 144.811 19.3043V19.3067Z" fill="white"/>
</g>
<path d="M137.265 17.8166V24.9206H136.085V17.8166H137.265ZM137.411 15.8763C137.411 16.2759 137.082 16.6009 136.679 16.6009C136.275 16.6009 135.947 16.2759 135.947 15.8763C135.947 15.4767 136.275 15.1517 136.679 15.1517C137.082 15.1517 137.411 15.4767 137.411 15.8763Z" fill="white"/>
<mask id="mask4_115_2157" style="mask-type:luminance" maskUnits="userSpaceOnUse" x="135" y="15" width="3" height="10">
<path d="M137.265 17.8166V24.9206H136.085V17.8166H137.265ZM137.411 15.8763C137.411 16.2759 137.082 16.6009 136.679 16.6009C136.275 16.6009 135.947 16.2759 135.947 15.8763C135.947 15.4767 136.275 15.1517 136.679 15.1517C137.082 15.1517 137.411 15.4767 137.411 15.8763Z" fill="white"/>
</mask>
<g mask="url(#mask4_115_2157)">
<path d="M137.535 14.7617H135.72V25.2479H137.535V14.7617Z" fill="white"/>
<path d="M135.295 25.1781L136.722 17.4145L136.924 17.0125L136.345 16.7092L136.586 14.7617L137.299 15.13L137.773 25.1492L135.295 25.1781Z" fill="white"/>
<path d="M135.769 25.7366L137.316 18.7121L137.586 25.4911L135.769 25.7366Z" fill="white"/>
<path opacity="0.2" d="M136.139 15.2744C136.703 15.3996 137.274 15.7053 137.778 16.3144C137.802 16.3433 138.14 15.6909 138.116 15.6572C137.875 15.3202 137.559 15.0217 137.146 14.8026C137.026 14.74 136.907 14.687 136.788 14.6413C136.669 14.598 136.095 15.2648 136.139 15.2744Z" fill="white"/>
<path opacity="0.15" d="M137.394 18.5243C137.377 18.5219 136.231 17.6312 136.231 17.6312L137.471 17.6866L137.394 18.5219V18.5243Z" fill="white"/>
</g>
<path d="M131.387 18.8469V17.8166H132.595V16.7573C132.595 16.1796 132.763 15.7439 133.101 15.4454C133.439 15.1468 133.933 14.9976 134.58 14.9976C134.692 14.9976 134.818 15.0072 134.962 15.0241C135.105 15.0433 135.232 15.0698 135.344 15.1059V16.1218C135.241 16.0857 135.129 16.0592 135.01 16.0472C134.891 16.0327 134.779 16.0255 134.677 16.0255C134.39 16.0255 134.169 16.0809 134.011 16.1916C133.853 16.3024 133.775 16.5118 133.775 16.8247V17.8142H135.164V18.8445H133.775V24.9181H132.595V18.8469H131.387Z" fill="white"/>
<mask id="mask5_115_2157" style="mask-type:luminance" maskUnits="userSpaceOnUse" x="131" y="14" width="5" height="11">
<path d="M131.387 18.8469V17.8166H132.595V16.7573C132.595 16.1796 132.763 15.7439 133.101 15.4454C133.439 15.1468 133.933 14.9976 134.58 14.9976C134.692 14.9976 134.818 15.0072 134.962 15.0241C135.105 15.0433 135.232 15.0698 135.344 15.1059V16.1218C135.241 16.0857 135.129 16.0592 135.01 16.0472C134.891 16.0327 134.779 16.0255 134.677 16.0255C134.39 16.0255 134.169 16.0809 134.011 16.1916C133.853 16.3024 133.775 16.5118 133.775 16.8247V17.8142H135.164V18.8445H133.775V24.9181H132.595V18.8469H131.387Z" fill="white"/>
</mask>
<g mask="url(#mask5_115_2157)">
<path d="M135.767 14.3741H130.689V25.5561H135.767V14.3741Z" fill="white"/>
<path opacity="0.36" d="M132.379 19.0275L132.6 18.8349C132.6 18.8349 133.118 14.8459 134.58 14.805L132.6 14.7208L131.384 17.2942L131.173 18.9432L132.379 19.0275Z" fill="white"/>
<path opacity="0.2" d="M135.973 15.1059C135.973 15.1059 133.743 14.8917 133.736 16.6274C133.736 16.6274 132.875 23.9023 132.843 24.9567C132.812 26.0111 132.805 25.26 132.805 25.26L134.276 25.1083L134.492 22.9875L134.186 18.9673L134.543 19.0299L136.085 16.1026L135.971 15.1059H135.973Z" fill="white"/>
<path opacity="0.15" d="M135.521 18.8373C135.497 18.8324 133.702 17.4434 133.702 17.4434L135.643 17.5325L135.521 18.8397V18.8373Z" fill="white"/>
<path d="M133.909 25C133.899 25.0241 133.126 25.1757 133.126 25.1757L133.899 20.4815L133.906 25H133.909Z" fill="white"/>
<path opacity="0.2" d="M132.775 15.5657C133.6 15.3683 134.551 15.4261 135.601 15.9653C135.65 15.9894 135.694 14.8243 135.64 14.7906C135.11 14.468 134.504 14.2465 133.819 14.2104C133.619 14.2008 133.427 14.2032 133.245 14.2176C133.062 14.2321 132.715 15.5778 132.778 15.5633L132.775 15.5657Z" fill="white"/>
</g>
<path d="M164.349 19.0635C164.053 18.8156 163.654 18.6928 163.155 18.6928C162.73 18.6928 162.372 18.7698 162.085 18.9263C161.798 19.0828 161.57 19.2874 161.397 19.545C161.227 19.8026 161.103 20.0963 161.03 20.4309C160.954 20.7655 160.918 21.1122 160.918 21.4684C160.918 21.7982 160.957 22.1184 161.037 22.4314C161.115 22.7419 161.239 23.0212 161.404 23.2619C161.572 23.505 161.789 23.7 162.056 23.8469C162.324 23.9937 162.645 24.0659 163.014 24.0659C163.598 24.0659 164.053 23.9143 164.381 23.6134C164.709 23.31 164.911 22.8839 164.984 22.3351H166.193C166.064 23.2138 165.733 23.8926 165.201 24.3693C164.668 24.8459 163.943 25.0842 163.026 25.0842C162.479 25.0842 161.995 24.9976 161.575 24.8242C161.154 24.6509 160.801 24.403 160.519 24.0828C160.237 23.7626 160.023 23.3799 159.879 22.9345C159.736 22.4891 159.663 22.0029 159.663 21.4709C159.663 20.9388 159.734 20.4429 159.872 19.9783C160.011 19.5161 160.222 19.1117 160.504 18.7698C160.787 18.4256 161.142 18.156 161.567 17.9586C161.993 17.7612 162.489 17.6625 163.053 17.6625C163.459 17.6625 163.841 17.7106 164.199 17.8069C164.556 17.9032 164.87 18.0525 165.142 18.2547C165.415 18.4569 165.641 18.7097 165.816 19.0178C165.991 19.3259 166.103 19.6894 166.149 20.1107H164.928C164.836 19.663 164.641 19.3139 164.345 19.0659L164.349 19.0635Z" fill="white"/>
<mask id="mask6_115_2157" style="mask-type:luminance" maskUnits="userSpaceOnUse" x="159" y="17" width="8" height="9">
<path d="M164.349 19.0635C164.053 18.8156 163.654 18.6928 163.155 18.6928C162.73 18.6928 162.372 18.7698 162.085 18.9263C161.798 19.0828 161.57 19.2874 161.397 19.545C161.227 19.8026 161.103 20.0963 161.03 20.4309C160.954 20.7655 160.918 21.1122 160.918 21.4684C160.918 21.7982 160.957 22.1184 161.037 22.4314C161.115 22.7419 161.239 23.0212 161.404 23.2619C161.572 23.505 161.789 23.7 162.056 23.8469C162.324 23.9937 162.645 24.0659 163.014 24.0659C163.598 24.0659 164.053 23.9143 164.381 23.6134C164.709 23.31 164.911 22.8839 164.984 22.3351H166.193C166.064 23.2138 165.733 23.8926 165.201 24.3693C164.668 24.8459 163.943 25.0842 163.026 25.0842C162.479 25.0842 161.995 24.9976 161.575 24.8242C161.154 24.6509 160.801 24.403 160.519 24.0828C160.237 23.7626 160.023 23.3799 159.879 22.9345C159.736 22.4891 159.663 22.0029 159.663 21.4709C159.663 20.9388 159.734 20.4429 159.872 19.9783C160.011 19.5161 160.222 19.1117 160.504 18.7698C160.787 18.4256 161.142 18.156 161.567 17.9586C161.993 17.7612 162.489 17.6625 163.053 17.6625C163.459 17.6625 163.841 17.7106 164.199 17.8069C164.556 17.9032 164.87 18.0525 165.142 18.2547C165.415 18.4569 165.641 18.7097 165.816 19.0178C165.991 19.3259 166.103 19.6894 166.149 20.1107H164.928C164.836 19.663 164.641 19.3139 164.345 19.0659L164.349 19.0635Z" fill="white"/>
</mask>
<g mask="url(#mask6_115_2157)">
<path d="M161.864 25.3129L165.862 25.2503L166.431 22.0077L164.862 22.039L164.464 22.8599H161.409L161.864 25.3129Z" fill="white"/>
<path d="M164.777 25.2816C164.777 25.2816 158.712 23.4954 162.197 18.688C163.394 17.0366 162.124 17.2653 161.027 18.1463C159.323 19.5137 159.218 21.2855 159.218 21.2855L159.821 23.818L161.733 25.3057L164.777 25.284V25.2816Z" fill="white"/>
<path opacity="0.1" d="M163.878 23.4761C163.878 23.4761 162.474 23.3582 162.513 23.4184C163.07 24.2585 164.079 24.6341 165.911 23.4954C166.054 23.4063 165.286 22.8599 165.286 22.8599C165.286 22.8599 164.408 22.8599 163.878 23.4761Z" fill="white"/>
<path d="M164.218 19.5739C164.218 19.5739 158.471 17.4266 160.48 24.8483C160.48 24.8483 157.62 19.687 160.626 18.0188C163.671 16.3288 166.071 18.0862 166.071 18.0862L164.218 19.5739Z" fill="white"/>
<path d="M164.408 19.4343C164.408 19.4343 163.369 19.2754 163.201 19.0274C162.786 18.4136 162.08 17.8695 161.178 18.2017C160.541 18.4352 161.059 17.9706 161.499 17.4651C162.304 16.5407 164.731 17.5373 164.731 17.5373L166.599 18.9071L166.353 20.3611L164.799 20.2552L164.408 19.4318V19.4343Z" fill="white"/>
<path opacity="0.1" d="M166.492 19.2682C165.463 18.3582 162.81 16.6851 159.575 19.8122C159.432 19.9494 160.062 18.688 160.171 18.6061C162.071 17.1979 164.683 16.3264 166.762 18.9576" fill="white"/>
</g>
<path d="M110.365 23.2162C110.662 23.5002 111.085 23.6423 111.639 23.6423C112.036 23.6423 112.379 23.5436 112.666 23.3486C112.953 23.1512 113.128 22.9442 113.191 22.7251H114.922C114.645 23.5749 114.22 24.1839 113.648 24.5498C113.074 24.9157 112.383 25.0987 111.569 25.0987C111.005 25.0987 110.496 25.0096 110.044 24.8315C109.592 24.6533 109.207 24.3982 108.894 24.0708C108.58 23.741 108.337 23.3486 108.166 22.8912C107.996 22.4338 107.911 21.9307 107.911 21.3818C107.911 20.8329 107.999 20.3587 108.174 19.9013C108.349 19.4439 108.599 19.0491 108.923 18.7145C109.246 18.3799 109.631 18.1175 110.08 17.9249C110.528 17.7323 111.024 17.636 111.571 17.636C112.182 17.636 112.712 17.7516 113.164 17.9851C113.616 18.2186 113.989 18.5315 114.28 18.9239C114.572 19.3163 114.781 19.7665 114.91 20.2672C115.039 20.7703 115.085 21.2951 115.049 21.844H109.881C109.908 22.4747 110.071 22.9321 110.365 23.2162ZM112.588 19.4848C112.352 19.2297 111.994 19.1021 111.513 19.1021C111.199 19.1021 110.939 19.155 110.73 19.2585C110.521 19.3645 110.355 19.4945 110.231 19.6485C110.107 19.805 110.02 19.9687 109.969 20.142C109.917 20.3154 109.888 20.4718 109.879 20.6091H113.079C112.987 20.1156 112.824 19.74 112.588 19.4848Z" fill="white"/>
<path d="M119.881 17.8262V19.1286H118.439V22.6408C118.439 22.9706 118.495 23.1897 118.604 23.298C118.716 23.4088 118.938 23.4617 119.268 23.4617C119.38 23.4617 119.485 23.4569 119.587 23.4473C119.689 23.4377 119.786 23.4232 119.879 23.4064V24.9157C119.713 24.9446 119.529 24.9615 119.324 24.9711C119.12 24.9807 118.923 24.9856 118.728 24.9856C118.424 24.9856 118.135 24.9639 117.863 24.923C117.59 24.882 117.35 24.8026 117.143 24.6822C116.936 24.5643 116.771 24.3934 116.652 24.1743C116.532 23.9552 116.472 23.6663 116.472 23.3101V19.1261H115.28V17.8238H116.472V15.7005H118.439V17.8262H119.881Z" fill="white"/>
<path d="M122.909 17.8262V24.9182H120.942V17.8262H122.909Z" fill="white"/>
<path d="M126.102 15.1252V20.378L128.583 17.8262H130.91L128.208 20.4333L131.214 24.9182H128.831L126.863 21.7501L126.102 22.4771V24.9182H124.135V15.1252H126.102Z" fill="white"/>
<path d="M105.153 15.1541V18.4136C104.626 18.0284 103.993 17.8021 103.31 17.8021C101.481 17.8045 100 19.4199 100 21.4107C100 23.4016 101.481 25.0169 103.31 25.0169C103.993 25.0169 104.626 24.7906 105.153 24.4054V24.9182H107.072V15.1541H105.153ZM103.344 23.481C102.422 23.481 101.676 22.5542 101.676 21.4107C101.676 20.2672 102.422 19.3404 103.344 19.3404C104.266 19.3404 105.01 20.2672 105.01 21.4107C105.01 22.5542 104.263 23.481 103.344 23.481Z" fill="white"/>
<path d="M122.958 16.0472C122.958 16.6105 122.496 17.0679 121.926 17.0679C121.357 17.0679 120.895 16.6105 120.895 16.0472C120.895 15.4839 121.355 15.0265 121.926 15.0265C122.498 15.0265 122.958 15.4839 122.958 16.0472Z" fill="white"/>
<path d="M100 49.2248V33.6038H108.432C110.611 33.6038 112.218 33.9865 113.257 34.7521C114.293 35.5176 114.813 36.4974 114.813 37.6866C114.813 38.4762 114.592 39.1791 114.149 39.7954C113.706 40.4141 113.062 40.9003 112.221 41.2566C111.379 41.6129 110.341 41.7911 109.11 41.7911L109.56 40.585C110.793 40.585 111.856 40.7559 112.751 41.0977C113.646 41.4396 114.336 41.9355 114.825 42.5831C115.314 43.2306 115.557 44.0082 115.557 44.9157C115.557 46.2687 114.991 47.3255 113.855 48.0838C112.719 48.8421 111.063 49.2224 108.884 49.2224H100V49.2248ZM105.231 45.5417H108.432C109.018 45.5417 109.458 45.4381 109.75 45.2287C110.044 45.0193 110.19 44.7159 110.19 44.3139C110.19 43.9119 110.044 43.6086 109.75 43.3991C109.455 43.1897 109.018 43.0862 108.432 43.0862H104.869V39.6052H107.709C108.31 39.6052 108.75 39.5041 109.027 39.3043C109.305 39.1045 109.443 38.818 109.443 38.4449C109.443 38.0717 109.305 37.7684 109.027 37.5734C108.75 37.3808 108.31 37.2821 107.709 37.2821H105.229V45.5392L105.231 45.5417Z" fill="white"/>
<path d="M124.979 49.5811C122.559 49.5811 120.672 48.9336 119.319 47.6384C117.967 46.3433 117.291 44.5282 117.291 42.1931V33.6013H122.612V42.0366C122.612 43.2282 122.831 44.0708 123.266 44.5691C123.702 45.0674 124.288 45.3178 125.025 45.3178C125.762 45.3178 126.367 45.0674 126.795 44.5691C127.223 44.0708 127.437 43.2258 127.437 42.0366V33.6013H132.668V42.1931C132.668 44.5282 131.992 46.3433 130.64 47.6384C129.288 48.9336 127.401 49.5811 124.981 49.5811H124.979Z" fill="white"/>
<path d="M140.986 49.5811C139.663 49.5811 138.386 49.4319 137.153 49.1358C135.92 48.8373 134.906 48.4521 134.108 47.9755L135.823 44.1358C136.574 44.5667 137.413 44.9133 138.337 45.1733C139.261 45.4333 140.159 45.5633 141.032 45.5633C141.543 45.5633 141.944 45.5296 142.238 45.4622C142.532 45.3948 142.746 45.2985 142.88 45.1709C143.016 45.0458 143.082 44.8917 143.082 44.7135C143.082 44.4319 142.924 44.208 142.608 44.0443C142.292 43.8806 141.876 43.7434 141.355 43.6302C140.837 43.5195 140.268 43.3991 139.653 43.274C139.038 43.1488 138.418 42.9803 137.792 42.7708C137.167 42.5614 136.598 42.287 136.078 41.9451C135.56 41.6033 135.142 41.1531 134.826 40.5946C134.509 40.0361 134.351 39.3404 134.351 38.5075C134.351 37.5397 134.626 36.6587 135.173 35.8618C135.723 35.0674 136.54 34.4295 137.63 33.9528C138.719 33.4762 140.076 33.2379 141.698 33.2379C142.766 33.2379 143.816 33.3486 144.855 33.5725C145.891 33.7964 146.825 34.1382 147.652 34.598L146.051 38.4136C145.271 38.026 144.514 37.7371 143.785 37.5421C143.055 37.3496 142.345 37.2509 141.654 37.2509C141.144 37.2509 140.738 37.2966 140.436 37.3857C140.134 37.4747 139.92 37.5951 139.794 37.7419C139.665 37.8912 139.602 38.0549 139.602 38.233C139.602 38.5003 139.76 38.7121 140.076 38.8686C140.392 39.025 140.808 39.155 141.329 39.2586C141.847 39.3621 142.418 39.4752 143.043 39.5932C143.666 39.7135 144.286 39.8748 144.904 40.0843C145.519 40.2937 146.088 40.5681 146.606 40.91C147.124 41.2518 147.542 41.6996 147.858 42.2484C148.174 42.7997 148.333 43.4834 148.333 44.3019C148.333 45.2552 148.058 46.129 147.511 46.9235C146.961 47.7203 146.146 48.3582 145.064 48.8421C143.982 49.326 142.622 49.5667 140.983 49.5667L140.986 49.5811Z" fill="white"/>
<path d="M149.913 49.2248V33.6038H155.234V49.2248H149.913Z" fill="white"/>
<path d="M157.805 49.2248V33.6038H162.178L170.203 43.1103H168.175V33.6038H173.36V49.2248H168.987L160.962 39.7183H162.99V49.2248H157.805Z" fill="white"/>
<path d="M181.161 45.2528H189.053V49.2248H175.933V33.6038H188.761V37.5758H181.164V45.2528H181.161ZM180.802 39.4054H187.835V43.1993H180.802V39.4054Z" fill="white"/>
<path d="M196.989 49.5811C195.666 49.5811 194.389 49.4319 193.156 49.1358C191.923 48.8373 190.909 48.4521 190.111 47.9755L191.826 44.1358C192.577 44.5667 193.416 44.9133 194.34 45.1733C195.264 45.4333 196.162 45.5633 197.035 45.5633C197.545 45.5633 197.947 45.5296 198.241 45.4622C198.535 45.3948 198.749 45.2985 198.883 45.1709C199.019 45.0458 199.085 44.8917 199.085 44.7135C199.085 44.4319 198.927 44.208 198.611 44.0443C198.295 43.8806 197.879 43.7434 197.358 43.6302C196.84 43.5195 196.271 43.3991 195.656 43.274C195.041 43.1488 194.42 42.9803 193.795 42.7708C193.17 42.5614 192.601 42.287 192.081 41.9451C191.563 41.6033 191.145 41.1531 190.828 40.5946C190.512 40.0361 190.354 39.3404 190.354 38.5075C190.354 37.5397 190.629 36.6587 191.176 35.8618C191.726 35.0674 192.543 34.4295 193.632 33.9528C194.722 33.4762 196.079 33.2379 197.701 33.2379C198.769 33.2379 199.819 33.3486 200.858 33.5725C201.894 33.7964 202.828 34.1382 203.655 34.598L202.054 38.4136C201.274 38.026 200.517 37.7371 199.788 37.5421C199.058 37.3496 198.348 37.2509 197.657 37.2509C197.147 37.2509 196.741 37.2966 196.439 37.3857C196.137 37.4747 195.923 37.5951 195.797 37.7419C195.668 37.8912 195.605 38.0549 195.605 38.233C195.605 38.5003 195.763 38.7121 196.079 38.8686C196.395 39.025 196.811 39.155 197.331 39.2586C197.849 39.3621 198.421 39.4752 199.046 39.5932C199.669 39.7135 200.289 39.8748 200.906 40.0843C201.522 40.2937 202.091 40.5681 202.609 40.91C203.127 41.2518 203.545 41.6996 203.861 42.2484C204.177 42.7997 204.335 43.4834 204.335 44.3019C204.335 45.2552 204.061 46.129 203.514 46.9235C202.964 47.7203 202.149 48.3582 201.067 48.8421C199.985 49.326 198.625 49.5667 196.986 49.5667L196.989 49.5811Z" fill="white"/>
<path d="M211.799 49.5811C210.476 49.5811 209.199 49.4319 207.966 49.1358C206.733 48.8373 205.719 48.4521 204.922 47.9755L206.636 44.1358C207.388 44.5667 208.227 44.9133 209.151 45.1733C210.075 45.4333 210.972 45.5633 211.845 45.5633C212.356 45.5633 212.76 45.5296 213.052 45.4622C213.346 45.3948 213.56 45.2985 213.694 45.1709C213.83 45.0458 213.898 44.8917 213.898 44.7135C213.898 44.4319 213.74 44.208 213.424 44.0443C213.108 43.8806 212.692 43.7434 212.174 43.6302C211.656 43.5195 211.087 43.3991 210.471 43.274C209.856 43.1488 209.236 42.9803 208.611 42.7708C207.986 42.5614 207.417 42.287 206.896 41.9451C206.378 41.6033 205.96 41.1531 205.644 40.5946C205.328 40.0361 205.17 39.3404 205.17 38.5075C205.17 37.5397 205.444 36.6587 205.992 35.8618C206.541 35.0674 207.358 34.4295 208.448 33.9528C209.537 33.4762 210.895 33.2379 212.517 33.2379C213.584 33.2379 214.635 33.3486 215.673 33.5725C216.712 33.7964 217.643 34.1382 218.47 34.598L216.87 38.4136C216.089 38.026 215.333 37.7371 214.603 37.5421C213.874 37.3496 213.164 37.2509 212.473 37.2509C211.962 37.2509 211.556 37.2966 211.254 37.3857C210.953 37.4747 210.739 37.5951 210.612 37.7419C210.483 37.8912 210.42 38.0549 210.42 38.233C210.42 38.5003 210.578 38.7121 210.894 38.8686C211.211 39.025 211.627 39.155 212.147 39.2586C212.665 39.3621 213.236 39.4752 213.859 39.5932C214.482 39.7135 215.102 39.8748 215.719 40.0843C216.335 40.2937 216.904 40.5681 217.422 40.91C217.94 41.2518 218.358 41.6996 218.672 42.2484C218.988 42.7997 219.146 43.4834 219.146 44.3019C219.146 45.2552 218.871 46.129 218.324 46.9235C217.774 47.7203 216.96 48.3582 215.878 48.8421C214.795 49.326 213.436 49.5667 211.797 49.5667L211.799 49.5811Z" fill="white"/>
<path d="M227.49 49.2248V33.6038H235.088C236.561 33.6038 237.833 33.8421 238.908 34.3187C239.983 34.7954 240.812 35.4767 241.398 36.3601C241.985 37.246 242.279 38.2908 242.279 39.4945C242.279 40.6981 241.985 41.7405 241.398 42.6192C240.812 43.4978 239.981 44.1767 238.908 44.6606C237.833 45.1444 236.559 45.3852 235.088 45.3852H230.442L232.809 43.1319V49.2248H227.488H227.49ZM232.811 43.7121L230.445 41.324H234.752C235.489 41.324 236.034 41.1603 236.386 40.8329C236.739 40.5055 236.916 40.0602 236.916 39.4945C236.916 38.9287 236.739 38.4834 236.386 38.156C236.034 37.8286 235.489 37.6649 234.752 37.6649H230.445L232.811 35.2768V43.7121Z" fill="white"/>
<path d="M244.015 49.2248V33.6038H249.336V45.142H256.459V49.2248H244.015Z" fill="white"/>
<path d="M256.438 49.2248L263.337 33.6038H268.568L275.468 49.2248H269.967L264.872 36.1026H266.946L261.851 49.2248H256.44H256.438ZM260.54 46.5022L261.892 42.7082H269.152L270.504 46.5022H260.538H260.54Z" fill="white"/>
<path d="M276.324 49.2248V33.6038H280.696L288.722 43.1103H286.693V33.6038H291.878V49.2248H287.503L279.478 39.7183H281.506V49.2248H276.321H276.324Z" fill="white"/>
<path d="M103.808 65C103.266 65 102.763 64.9109 102.296 64.7376C101.831 64.5619 101.428 64.3115 101.085 63.9865C100.744 63.6615 100.477 63.2812 100.287 62.843C100.095 62.4049 100 61.9259 100 61.4011C100 60.8763 100.095 60.3972 100.287 59.9591C100.477 59.5209 100.747 59.1406 101.092 58.8156C101.437 58.4906 101.841 58.2403 102.303 58.0645C102.765 57.8888 103.271 57.8021 103.821 57.8021C104.431 57.8021 104.981 57.9056 105.474 58.1151C105.966 58.3245 106.379 58.6302 106.715 59.0347L105.669 59.9904C105.428 59.7183 105.161 59.5137 104.864 59.3789C104.57 59.2441 104.249 59.1743 103.898 59.1743C103.57 59.1743 103.269 59.2273 102.994 59.3332C102.719 59.4391 102.481 59.5908 102.281 59.7906C102.079 59.9904 101.924 60.2239 101.814 60.4959C101.705 60.7679 101.649 61.0689 101.649 61.4011C101.649 61.7333 101.705 62.0342 101.814 62.3062C101.924 62.5782 102.079 62.8142 102.281 63.0116C102.483 63.2114 102.719 63.363 102.994 63.4689C103.269 63.5749 103.57 63.6278 103.898 63.6278C104.246 63.6278 104.567 63.5604 104.864 63.4232C105.158 63.2884 105.426 63.079 105.669 62.8021L106.715 63.7578C106.379 64.1623 105.966 64.4704 105.474 64.6822C104.983 64.8941 104.429 65 103.811 65H103.808Z" fill="white"/>
<path d="M117.101 65C116.545 65 116.031 64.9109 115.56 64.7304C115.088 64.5522 114.679 64.2995 114.334 63.9745C113.989 63.6495 113.721 63.2691 113.529 62.831C113.337 62.3929 113.242 61.9162 113.242 61.3987C113.242 60.8811 113.337 60.4044 113.529 59.9663C113.719 59.5282 113.989 59.1478 114.339 58.8228C114.687 58.4978 115.095 58.2451 115.564 58.0669C116.034 57.8888 116.542 57.7973 117.092 57.7973C117.641 57.7973 118.159 57.8864 118.624 58.0669C119.088 58.2451 119.494 58.4978 119.84 58.8228C120.185 59.1478 120.455 59.5282 120.65 59.9615C120.844 60.3948 120.941 60.8739 120.941 61.3987C120.941 61.9234 120.844 62.3953 120.65 62.8358C120.455 63.2764 120.185 63.6591 119.84 63.9793C119.494 64.3019 119.088 64.5522 118.624 64.7304C118.159 64.9085 117.651 65 117.101 65ZM117.092 63.6278C117.405 63.6278 117.697 63.5749 117.96 63.4689C118.225 63.363 118.456 63.2114 118.658 63.0116C118.86 62.8117 119.015 62.5782 119.125 62.3062C119.234 62.0342 119.29 61.7333 119.29 61.4011C119.29 61.0688 119.234 60.7679 119.125 60.4959C119.015 60.2239 118.86 59.988 118.663 59.7906C118.466 59.5908 118.232 59.4391 117.965 59.3332C117.697 59.2273 117.405 59.1743 117.092 59.1743C116.778 59.1743 116.486 59.2273 116.224 59.3332C115.958 59.4391 115.727 59.5908 115.526 59.7906C115.324 59.9904 115.168 60.2239 115.059 60.4959C114.949 60.7679 114.893 61.0688 114.893 61.4011C114.893 61.7333 114.949 62.027 115.059 62.3014C115.168 62.5758 115.324 62.8142 115.521 63.0116C115.718 63.2114 115.951 63.363 116.219 63.4689C116.486 63.5749 116.778 63.6278 117.092 63.6278Z" fill="white"/>
<path d="M128.194 64.8796V57.9177H129.541L132.535 62.831H131.822L134.767 57.9177H136.102L136.122 64.8796H134.594L134.585 60.2359H134.867L132.515 64.1454H131.781L129.38 60.2359H129.721V64.8796H128.194Z" fill="white"/>
<path d="M143.816 64.8796V57.9177H146.861C147.491 57.9177 148.033 58.0188 148.488 58.221C148.943 58.4232 149.296 58.7121 149.544 59.0924C149.792 59.4728 149.916 59.9206 149.916 60.4453C149.916 60.9701 149.792 61.4107 149.544 61.7886C149.296 62.1666 148.943 62.4579 148.488 62.6601C148.033 62.8623 147.491 62.9634 146.861 62.9634H144.721L145.443 62.2364V64.882H143.816V64.8796ZM145.443 62.4121L144.721 61.6466H146.771C147.275 61.6466 147.649 61.5407 147.897 61.3288C148.145 61.117 148.269 60.8209 148.269 60.4429C148.269 60.065 148.145 59.7593 147.897 59.5474C147.649 59.3356 147.275 59.2297 146.771 59.2297H144.721L145.443 58.4641V62.4121Z" fill="white"/>
<path d="M158.717 63.5869H162.545V64.8796H157.1V57.9177H162.416V59.2104H158.719V63.5869H158.717ZM158.595 60.7222H161.981V61.9764H158.595V60.7222Z" fill="white"/>
<path d="M171.327 64.8796V59.2297H169.077V57.9177H175.206V59.2297H172.956V64.8796H171.329H171.327Z" fill="white"/>
<path d="M182.11 64.8796V57.9177H183.737V64.8796H182.11Z" fill="white"/>
<path d="M192.891 64.8796V59.2297H190.641V57.9177H196.77V59.2297H194.52V64.8796H192.893H192.891Z" fill="white"/>
<path d="M203.672 64.8796V57.9177H205.299V64.8796H203.672Z" fill="white"/>
<path d="M216.41 65C215.853 65 215.34 64.9109 214.868 64.7304C214.396 64.5498 213.988 64.2995 213.643 63.9745C213.297 63.6495 213.03 63.2691 212.838 62.831C212.648 62.3929 212.551 61.9162 212.551 61.3987C212.551 60.8811 212.645 60.4044 212.838 59.9663C213.03 59.5282 213.297 59.1478 213.647 58.8228C213.995 58.4978 214.404 58.2451 214.873 58.0669C215.343 57.8888 215.851 57.7973 216.4 57.7973C216.95 57.7973 217.468 57.8864 217.933 58.0669C218.397 58.2451 218.803 58.4978 219.149 58.8228C219.494 59.1478 219.764 59.5282 219.958 59.9615C220.153 60.3948 220.25 60.8739 220.25 61.3987C220.25 61.9234 220.153 62.3953 219.958 62.8358C219.764 63.2764 219.494 63.6591 219.149 63.9793C218.803 64.3019 218.399 64.5522 217.933 64.7304C217.466 64.9085 216.96 65 216.41 65ZM216.4 63.6278C216.714 63.6278 217.006 63.5749 217.269 63.4689C217.531 63.363 217.767 63.2114 217.967 63.0116C218.168 62.8117 218.324 62.5782 218.434 62.3062C218.543 62.0342 218.599 61.7333 218.599 61.4011C218.599 61.0688 218.543 60.7679 218.434 60.4959C218.324 60.2239 218.168 59.988 217.971 59.7906C217.774 59.5908 217.541 59.4391 217.273 59.3332C217.006 59.2273 216.714 59.1743 216.4 59.1743C216.087 59.1743 215.795 59.2273 215.532 59.3332C215.267 59.4391 215.036 59.5908 214.834 59.7906C214.632 59.9904 214.477 60.2239 214.367 60.4959C214.258 60.7679 214.202 61.0688 214.202 61.4011C214.202 61.7333 214.258 62.027 214.367 62.3014C214.477 62.5758 214.632 62.8142 214.829 63.0116C215.026 63.2114 215.26 63.363 215.527 63.4689C215.795 63.5749 216.087 63.6278 216.4 63.6278Z" fill="white"/>
<path d="M227.502 64.8796V57.9177H228.85L232.998 62.9297H232.344V57.9177H233.952V64.8796H232.614L228.456 59.8676H229.11V64.8796H227.502Z" fill="white"/>
<path d="M250.02 64.8796V63.8348L252.734 61.2975C252.948 61.105 253.106 60.934 253.206 60.78C253.305 60.6283 253.376 60.4887 253.412 60.3635C253.449 60.2383 253.468 60.1228 253.468 60.0144C253.468 59.7352 253.373 59.5233 253.181 59.3717C252.992 59.2224 252.709 59.1478 252.342 59.1478C252.048 59.1478 251.776 59.2032 251.523 59.3163C251.272 59.4295 251.058 59.6052 250.885 59.8435L249.699 59.0876C249.966 58.6904 250.341 58.3751 250.825 58.1415C251.306 57.9104 251.863 57.7925 252.493 57.7925C253.016 57.7925 253.473 57.8767 253.865 58.0452C254.256 58.2138 254.56 58.4521 254.779 58.7554C254.995 59.0611 255.105 59.4246 255.105 59.8483C255.105 60.0746 255.076 60.2985 255.02 60.52C254.964 60.7414 254.85 60.975 254.679 61.2205C254.509 61.466 254.259 61.7405 253.93 62.0462L251.681 64.1454L251.369 63.558H255.338V64.87H250.022L250.02 64.8796Z" fill="white"/>
<path d="M265.052 65C264.475 65 263.96 64.858 263.505 64.5763C263.05 64.2947 262.69 63.8854 262.43 63.3486C262.17 62.8117 262.038 62.1618 262.038 61.3987C262.038 60.6355 262.17 59.9856 262.43 59.4487C262.69 58.9119 263.05 58.5026 263.505 58.221C263.96 57.9393 264.475 57.7973 265.052 57.7973C265.628 57.7973 266.151 57.9393 266.603 58.221C267.056 58.5026 267.413 58.9119 267.673 59.4487C267.933 59.9856 268.065 60.6355 268.065 61.3987C268.065 62.1618 267.933 62.8117 267.673 63.3486C267.413 63.8854 267.056 64.2947 266.603 64.5763C266.151 64.858 265.633 65 265.052 65ZM265.052 63.6375C265.326 63.6375 265.565 63.5604 265.769 63.4088C265.973 63.2571 266.134 63.014 266.251 62.6818C266.367 62.3495 266.426 61.9234 266.426 61.3987C266.426 60.8739 266.367 60.4478 266.251 60.1156C266.134 59.7833 265.973 59.5426 265.769 59.3885C265.565 59.2345 265.326 59.1598 265.052 59.1598C264.777 59.1598 264.548 59.2369 264.344 59.3885C264.14 59.5402 263.979 59.7833 263.862 60.1156C263.746 60.4478 263.687 60.8739 263.687 61.3987C263.687 61.9234 263.746 62.3495 263.862 62.6818C263.979 63.014 264.14 63.2547 264.344 63.4088C264.548 63.5604 264.784 63.6375 265.052 63.6375Z" fill="white"/>
<path d="M274.787 64.8796V63.8348L277.501 61.2975C277.715 61.105 277.873 60.934 277.973 60.78C278.072 60.6283 278.143 60.4887 278.179 60.3635C278.216 60.2383 278.235 60.1228 278.235 60.0144C278.235 59.7352 278.14 59.5233 277.948 59.3717C277.759 59.2224 277.476 59.1478 277.109 59.1478C276.815 59.1478 276.543 59.2032 276.29 59.3163C276.039 59.4295 275.825 59.6052 275.652 59.8435L274.466 59.0876C274.733 58.6904 275.108 58.3751 275.592 58.1415C276.073 57.9104 276.63 57.7925 277.26 57.7925C277.783 57.7925 278.24 57.8767 278.632 58.0452C279.023 58.2138 279.327 58.4521 279.546 58.7554C279.762 59.0611 279.872 59.4246 279.872 59.8483C279.872 60.0746 279.843 60.2985 279.787 60.52C279.731 60.7414 279.617 60.975 279.446 61.2205C279.276 61.466 279.026 61.7405 278.697 62.0462L276.448 64.1454L276.136 63.558H280.105V64.87H274.789L274.787 64.8796Z" fill="white"/>
<path d="M289.084 65C288.595 65 288.109 64.935 287.627 64.805C287.146 64.675 286.737 64.4921 286.402 64.2537L287.034 63.0212C287.301 63.2138 287.613 63.3654 287.968 63.4786C288.323 63.5917 288.68 63.6471 289.043 63.6471C289.451 63.6471 289.772 63.5676 290.008 63.4088C290.242 63.2499 290.361 63.0308 290.361 62.7516C290.361 62.4723 290.256 62.2773 290.05 62.1257C289.843 61.974 289.507 61.897 289.045 61.897H288.301V60.8329L290.261 58.635L290.441 59.2128H286.754V57.9201H291.677V58.9649L289.726 61.1627L288.902 60.6957H289.373C290.237 60.6957 290.891 60.8883 291.334 61.2735C291.776 61.6586 291.998 62.1521 291.998 62.7564C291.998 63.1488 291.893 63.5147 291.686 63.8565C291.48 64.1984 291.161 64.4752 290.733 64.687C290.305 64.8989 289.755 65.0048 289.084 65.0048V65Z" fill="white"/>
</g>
<path d="M867.93 45.5L872.34 35.7H874.132L878.556 45.5H876.652L872.858 36.666H873.586L869.806 45.5H867.93ZM869.96 43.232L870.45 41.804H875.742L876.232 43.232H869.96ZM883.778 45.598C883.144 45.598 882.579 45.458 882.084 45.178C881.59 44.898 881.198 44.478 880.908 43.918C880.628 43.3487 880.488 42.63 880.488 41.762C880.488 40.8847 880.633 40.166 880.922 39.606C881.221 39.046 881.618 38.6307 882.112 38.36C882.616 38.08 883.172 37.94 883.778 37.94C884.516 37.94 885.164 38.0987 885.724 38.416C886.294 38.7333 886.742 39.1767 887.068 39.746C887.404 40.3153 887.572 40.9873 887.572 41.762C887.572 42.5367 887.404 43.2087 887.068 43.778C886.742 44.3473 886.294 44.7953 885.724 45.122C885.164 45.4393 884.516 45.598 883.778 45.598ZM879.634 45.5V35.112H881.384V39.76L881.244 41.748L881.3 43.736V45.5H879.634ZM883.582 44.1C884.002 44.1 884.376 44.0067 884.702 43.82C885.038 43.6333 885.304 43.3627 885.5 43.008C885.696 42.6533 885.794 42.238 885.794 41.762C885.794 41.2767 885.696 40.8613 885.5 40.516C885.304 40.1613 885.038 39.8907 884.702 39.704C884.376 39.5173 884.002 39.424 883.582 39.424C883.162 39.424 882.784 39.5173 882.448 39.704C882.112 39.8907 881.846 40.1613 881.65 40.516C881.454 40.8613 881.356 41.2767 881.356 41.762C881.356 42.238 881.454 42.6533 881.65 43.008C881.846 43.3627 882.112 43.6333 882.448 43.82C882.784 44.0067 883.162 44.1 883.582 44.1ZM892.592 45.598C891.827 45.598 891.145 45.4347 890.548 45.108C889.951 44.772 889.479 44.3147 889.134 43.736C888.789 43.1573 888.616 42.4993 888.616 41.762C888.616 41.0153 888.789 40.3573 889.134 39.788C889.479 39.2093 889.951 38.7567 890.548 38.43C891.145 38.1033 891.827 37.94 892.592 37.94C893.367 37.94 894.053 38.1033 894.65 38.43C895.257 38.7567 895.728 39.2047 896.064 39.774C896.409 40.3433 896.582 41.006 896.582 41.762C896.582 42.4993 896.409 43.1573 896.064 43.736C895.728 44.3147 895.257 44.772 894.65 45.108C894.053 45.4347 893.367 45.598 892.592 45.598ZM892.592 44.1C893.021 44.1 893.404 44.0067 893.74 43.82C894.076 43.6333 894.337 43.3627 894.524 43.008C894.72 42.6533 894.818 42.238 894.818 41.762C894.818 41.2767 894.72 40.8613 894.524 40.516C894.337 40.1613 894.076 39.8907 893.74 39.704C893.404 39.5173 893.026 39.424 892.606 39.424C892.177 39.424 891.794 39.5173 891.458 39.704C891.131 39.8907 890.87 40.1613 890.674 40.516C890.478 40.8613 890.38 41.2767 890.38 41.762C890.38 42.238 890.478 42.6533 890.674 43.008C890.87 43.3627 891.131 43.6333 891.458 43.82C891.794 44.0067 892.172 44.1 892.592 44.1ZM901.419 45.598C900.785 45.598 900.225 45.4813 899.739 45.248C899.254 45.0053 898.876 44.6413 898.605 44.156C898.335 43.6613 898.199 43.0407 898.199 42.294V38.024H899.949V42.056C899.949 42.728 900.099 43.232 900.397 43.568C900.705 43.8947 901.139 44.058 901.699 44.058C902.11 44.058 902.465 43.974 902.763 43.806C903.071 43.638 903.309 43.386 903.477 43.05C903.655 42.714 903.743 42.2987 903.743 41.804V38.024H905.493V45.5H903.827V43.484L904.121 44.1C903.869 44.5853 903.501 44.9587 903.015 45.22C902.53 45.472 901.998 45.598 901.419 45.598ZM910.599 45.598C909.777 45.598 909.143 45.388 908.695 44.968C908.247 44.5387 908.023 43.9087 908.023 43.078V36.372H909.773V43.036C909.773 43.3907 909.861 43.666 910.039 43.862C910.225 44.058 910.482 44.156 910.809 44.156C911.201 44.156 911.527 44.0533 911.789 43.848L912.279 45.094C912.073 45.262 911.821 45.388 911.523 45.472C911.224 45.556 910.916 45.598 910.599 45.598ZM906.791 39.48V38.08H911.775V39.48H906.791Z" fill="white"/>
<path d="M964.316 45.5V35.7H965.814L970.098 42.854H969.314L973.528 35.7H975.026L975.04 45.5H973.318L973.304 38.402H973.668L970.084 44.38H969.272L965.632 38.402H966.052V45.5H964.316ZM981.033 45.598C980.202 45.598 979.474 45.4347 978.849 45.108C978.233 44.772 977.752 44.3147 977.407 43.736C977.071 43.1573 976.903 42.4993 976.903 41.762C976.903 41.0153 977.066 40.3573 977.393 39.788C977.729 39.2093 978.186 38.7567 978.765 38.43C979.353 38.1033 980.02 37.94 980.767 37.94C981.495 37.94 982.144 38.0987 982.713 38.416C983.282 38.7333 983.73 39.1813 984.057 39.76C984.384 40.3387 984.547 41.02 984.547 41.804C984.547 41.8787 984.542 41.9627 984.533 42.056C984.533 42.1493 984.528 42.238 984.519 42.322H978.289V41.16H983.595L982.909 41.524C982.918 41.0947 982.83 40.7167 982.643 40.39C982.456 40.0633 982.2 39.8067 981.873 39.62C981.556 39.4333 981.187 39.34 980.767 39.34C980.338 39.34 979.96 39.4333 979.633 39.62C979.316 39.8067 979.064 40.068 978.877 40.404C978.7 40.7307 978.611 41.118 978.611 41.566V41.846C978.611 42.294 978.714 42.6907 978.919 43.036C979.124 43.3813 979.414 43.6473 979.787 43.834C980.16 44.0207 980.59 44.114 981.075 44.114C981.495 44.114 981.873 44.0487 982.209 43.918C982.545 43.7873 982.844 43.582 983.105 43.302L984.043 44.38C983.707 44.772 983.282 45.0753 982.769 45.29C982.265 45.4953 981.686 45.598 981.033 45.598ZM989.658 45.598C988.874 45.598 988.174 45.4347 987.558 45.108C986.951 44.772 986.475 44.3147 986.13 43.736C985.785 43.1573 985.612 42.4993 985.612 41.762C985.612 41.0153 985.785 40.3573 986.13 39.788C986.475 39.2093 986.951 38.7567 987.558 38.43C988.174 38.1033 988.874 37.94 989.658 37.94C990.386 37.94 991.025 38.0893 991.576 38.388C992.136 38.6773 992.561 39.1067 992.85 39.676L991.506 40.46C991.282 40.1053 991.007 39.844 990.68 39.676C990.363 39.508 990.017 39.424 989.644 39.424C989.215 39.424 988.827 39.5173 988.482 39.704C988.137 39.8907 987.866 40.1613 987.67 40.516C987.474 40.8613 987.376 41.2767 987.376 41.762C987.376 42.2473 987.474 42.6673 987.67 43.022C987.866 43.3673 988.137 43.6333 988.482 43.82C988.827 44.0067 989.215 44.1 989.644 44.1C990.017 44.1 990.363 44.016 990.68 43.848C991.007 43.68 991.282 43.4187 991.506 43.064L992.85 43.848C992.561 44.408 992.136 44.842 991.576 45.15C991.025 45.4487 990.386 45.598 989.658 45.598ZM998.536 37.94C999.134 37.94 999.666 38.0567 1000.13 38.29C1000.61 38.5233 1000.98 38.8827 1001.25 39.368C1001.52 39.844 1001.66 40.46 1001.66 41.216V45.5H999.908V41.44C999.908 40.7773 999.75 40.2827 999.432 39.956C999.124 39.6293 998.69 39.466 998.13 39.466C997.72 39.466 997.356 39.55 997.038 39.718C996.721 39.886 996.474 40.138 996.296 40.474C996.128 40.8007 996.044 41.216 996.044 41.72V45.5H994.294V35.112H996.044V40.04L995.666 39.424C995.928 38.948 996.306 38.584 996.8 38.332C997.304 38.0707 997.883 37.94 998.536 37.94ZM1008.48 45.5V43.988L1008.39 43.666V41.02C1008.39 40.5067 1008.23 40.11 1007.92 39.83C1007.62 39.5407 1007.15 39.396 1006.52 39.396C1006.1 39.396 1005.69 39.4613 1005.28 39.592C1004.88 39.7227 1004.54 39.9047 1004.26 40.138L1003.57 38.864C1003.97 38.556 1004.45 38.3273 1005 38.178C1005.56 38.0193 1006.14 37.94 1006.73 37.94C1007.82 37.94 1008.65 38.2013 1009.24 38.724C1009.84 39.2373 1010.14 40.0353 1010.14 41.118V45.5H1008.48ZM1006.13 45.598C1005.57 45.598 1005.08 45.5047 1004.66 45.318C1004.24 45.122 1003.92 44.856 1003.68 44.52C1003.46 44.1747 1003.35 43.7873 1003.35 43.358C1003.35 42.938 1003.44 42.56 1003.64 42.224C1003.85 41.888 1004.18 41.622 1004.63 41.426C1005.09 41.23 1005.7 41.132 1006.45 41.132H1008.62V42.294H1006.58C1005.98 42.294 1005.58 42.392 1005.38 42.588C1005.17 42.7747 1005.07 43.008 1005.07 43.288C1005.07 43.6053 1005.19 43.8573 1005.45 44.044C1005.7 44.2307 1006.05 44.324 1006.5 44.324C1006.93 44.324 1007.31 44.226 1007.64 44.03C1007.99 43.834 1008.24 43.5447 1008.39 43.162L1008.68 44.212C1008.51 44.6507 1008.21 44.9913 1007.77 45.234C1007.34 45.4767 1006.8 45.598 1006.13 45.598ZM1016.62 37.94C1017.22 37.94 1017.75 38.0567 1018.22 38.29C1018.7 38.5233 1019.07 38.8827 1019.34 39.368C1019.61 39.844 1019.75 40.46 1019.75 41.216V45.5H1018V41.44C1018 40.7773 1017.84 40.2827 1017.52 39.956C1017.21 39.6293 1016.78 39.466 1016.22 39.466C1015.81 39.466 1015.44 39.55 1015.13 39.718C1014.81 39.886 1014.56 40.138 1014.38 40.474C1014.22 40.8007 1014.13 41.216 1014.13 41.72V45.5H1012.38V38.024H1014.05V40.04L1013.75 39.424C1014.02 38.948 1014.39 38.584 1014.89 38.332C1015.39 38.0707 1015.97 37.94 1016.62 37.94ZM1021.97 45.5V38.024H1023.72V45.5H1021.97ZM1022.85 36.792C1022.52 36.792 1022.25 36.6893 1022.04 36.484C1021.83 36.2787 1021.73 36.0313 1021.73 35.742C1021.73 35.4433 1021.83 35.196 1022.04 35C1022.25 34.7947 1022.52 34.692 1022.85 34.692C1023.18 34.692 1023.44 34.79 1023.65 34.986C1023.86 35.1727 1023.97 35.4107 1023.97 35.7C1023.97 36.008 1023.87 36.2693 1023.66 36.484C1023.46 36.6893 1023.18 36.792 1022.85 36.792ZM1028.32 45.598C1027.7 45.598 1027.1 45.5187 1026.52 45.36C1025.95 45.192 1025.5 44.9913 1025.16 44.758L1025.83 43.428C1026.17 43.6427 1026.57 43.82 1027.04 43.96C1027.5 44.1 1027.97 44.17 1028.44 44.17C1028.99 44.17 1029.38 44.0953 1029.63 43.946C1029.88 43.7967 1030 43.596 1030 43.344C1030 43.1387 1029.92 42.9847 1029.75 42.882C1029.58 42.77 1029.36 42.686 1029.09 42.63C1028.82 42.574 1028.52 42.5227 1028.18 42.476C1027.86 42.4293 1027.53 42.3687 1027.19 42.294C1026.86 42.21 1026.56 42.0933 1026.29 41.944C1026.02 41.7853 1025.8 41.5753 1025.64 41.314C1025.47 41.0527 1025.38 40.7073 1025.38 40.278C1025.38 39.802 1025.52 39.3913 1025.79 39.046C1026.06 38.6913 1026.44 38.4207 1026.92 38.234C1027.42 38.038 1028 37.94 1028.67 37.94C1029.18 37.94 1029.69 37.996 1030.2 38.108C1030.71 38.22 1031.14 38.3787 1031.47 38.584L1030.8 39.914C1030.45 39.6993 1030.09 39.5547 1029.72 39.48C1029.37 39.396 1029.01 39.354 1028.66 39.354C1028.13 39.354 1027.73 39.4333 1027.47 39.592C1027.22 39.7507 1027.09 39.9513 1027.09 40.194C1027.09 40.418 1027.18 40.586 1027.34 40.698C1027.51 40.81 1027.73 40.8987 1028 40.964C1028.27 41.0293 1028.57 41.0853 1028.9 41.132C1029.23 41.1693 1029.56 41.23 1029.89 41.314C1030.22 41.398 1030.52 41.5147 1030.79 41.664C1031.07 41.804 1031.29 42.0047 1031.46 42.266C1031.63 42.5273 1031.71 42.868 1031.71 43.288C1031.71 43.7547 1031.57 44.1607 1031.29 44.506C1031.02 44.8513 1030.63 45.122 1030.13 45.318C1029.63 45.5047 1029.02 45.598 1028.32 45.598ZM1042.65 37.94C1043.25 37.94 1043.78 38.0567 1044.24 38.29C1044.7 38.5233 1045.07 38.8827 1045.33 39.368C1045.59 39.844 1045.72 40.46 1045.72 41.216V45.5H1043.97V41.44C1043.97 40.7773 1043.83 40.2827 1043.54 39.956C1043.25 39.6293 1042.83 39.466 1042.29 39.466C1041.91 39.466 1041.57 39.55 1041.27 39.718C1040.98 39.886 1040.75 40.1333 1040.58 40.46C1040.42 40.7867 1040.34 41.202 1040.34 41.706V45.5H1038.59V41.44C1038.59 40.7773 1038.45 40.2827 1038.16 39.956C1037.87 39.6293 1037.46 39.466 1036.91 39.466C1036.53 39.466 1036.19 39.55 1035.89 39.718C1035.6 39.886 1035.37 40.1333 1035.21 40.46C1035.05 40.7867 1034.97 41.202 1034.97 41.706V45.5H1033.22V38.024H1034.88V40.012L1034.59 39.424C1034.84 38.9387 1035.21 38.57 1035.68 38.318C1036.17 38.066 1036.72 37.94 1037.33 37.94C1038.03 37.94 1038.64 38.1127 1039.15 38.458C1039.68 38.8033 1040.02 39.326 1040.19 40.026L1039.5 39.788C1039.75 39.228 1040.15 38.78 1040.71 38.444C1041.27 38.108 1041.92 37.94 1042.65 37.94Z" fill="white"/>
<path d="M1088.32 45.5V35.7H1090.14V43.96H1095.26V45.5H1088.32ZM1101.15 45.5V43.988L1101.05 43.666V41.02C1101.05 40.5067 1100.9 40.11 1100.59 39.83C1100.28 39.5407 1099.81 39.396 1099.19 39.396C1098.77 39.396 1098.35 39.4613 1097.94 39.592C1097.54 39.7227 1097.2 39.9047 1096.92 40.138L1096.23 38.864C1096.64 38.556 1097.11 38.3273 1097.66 38.178C1098.22 38.0193 1098.8 37.94 1099.4 37.94C1100.48 37.94 1101.32 38.2013 1101.9 38.724C1102.5 39.2373 1102.8 40.0353 1102.8 41.118V45.5H1101.15ZM1098.8 45.598C1098.24 45.598 1097.75 45.5047 1097.33 45.318C1096.91 45.122 1096.58 44.856 1096.35 44.52C1096.12 44.1747 1096.01 43.7873 1096.01 43.358C1096.01 42.938 1096.11 42.56 1096.3 42.224C1096.51 41.888 1096.84 41.622 1097.3 41.426C1097.76 41.23 1098.36 41.132 1099.12 41.132H1101.29V42.294H1099.24C1098.65 42.294 1098.25 42.392 1098.04 42.588C1097.84 42.7747 1097.73 43.008 1097.73 43.288C1097.73 43.6053 1097.86 43.8573 1098.11 44.044C1098.36 44.2307 1098.71 44.324 1099.16 44.324C1099.59 44.324 1099.97 44.226 1100.31 44.03C1100.65 43.834 1100.9 43.5447 1101.05 43.162L1101.34 44.212C1101.18 44.6507 1100.87 44.9913 1100.43 45.234C1100.01 45.4767 1099.46 45.598 1098.8 45.598ZM1107.86 45.598C1107.04 45.598 1106.4 45.388 1105.96 44.968C1105.51 44.5387 1105.28 43.9087 1105.28 43.078V36.372H1107.03V43.036C1107.03 43.3907 1107.12 43.666 1107.3 43.862C1107.49 44.058 1107.74 44.156 1108.07 44.156C1108.46 44.156 1108.79 44.0533 1109.05 43.848L1109.54 45.094C1109.34 45.262 1109.08 45.388 1108.78 45.472C1108.49 45.556 1108.18 45.598 1107.86 45.598ZM1104.05 39.48V38.08H1109.04V39.48H1104.05ZM1114.25 45.598C1113.42 45.598 1112.69 45.4347 1112.06 45.108C1111.45 44.772 1110.97 44.3147 1110.62 43.736C1110.29 43.1573 1110.12 42.4993 1110.12 41.762C1110.12 41.0153 1110.28 40.3573 1110.61 39.788C1110.94 39.2093 1111.4 38.7567 1111.98 38.43C1112.57 38.1033 1113.24 37.94 1113.98 37.94C1114.71 37.94 1115.36 38.0987 1115.93 38.416C1116.5 38.7333 1116.95 39.1813 1117.27 39.76C1117.6 40.3387 1117.76 41.02 1117.76 41.804C1117.76 41.8787 1117.76 41.9627 1117.75 42.056C1117.75 42.1493 1117.74 42.238 1117.73 42.322H1111.5V41.16H1116.81L1116.12 41.524C1116.13 41.0947 1116.04 40.7167 1115.86 40.39C1115.67 40.0633 1115.41 39.8067 1115.09 39.62C1114.77 39.4333 1114.4 39.34 1113.98 39.34C1113.55 39.34 1113.17 39.4333 1112.85 39.62C1112.53 39.8067 1112.28 40.068 1112.09 40.404C1111.91 40.7307 1111.83 41.118 1111.83 41.566V41.846C1111.83 42.294 1111.93 42.6907 1112.13 43.036C1112.34 43.3813 1112.63 43.6473 1113 43.834C1113.38 44.0207 1113.8 44.114 1114.29 44.114C1114.71 44.114 1115.09 44.0487 1115.42 43.918C1115.76 43.7873 1116.06 43.582 1116.32 43.302L1117.26 44.38C1116.92 44.772 1116.5 45.0753 1115.98 45.29C1115.48 45.4953 1114.9 45.598 1114.25 45.598ZM1121.75 45.598C1121.13 45.598 1120.53 45.5187 1119.95 45.36C1119.38 45.192 1118.92 44.9913 1118.59 44.758L1119.26 43.428C1119.6 43.6427 1120 43.82 1120.46 43.96C1120.93 44.1 1121.4 44.17 1121.86 44.17C1122.42 44.17 1122.81 44.0953 1123.05 43.946C1123.31 43.7967 1123.43 43.596 1123.43 43.344C1123.43 43.1387 1123.35 42.9847 1123.18 42.882C1123.01 42.77 1122.79 42.686 1122.52 42.63C1122.25 42.574 1121.95 42.5227 1121.61 42.476C1121.29 42.4293 1120.95 42.3687 1120.62 42.294C1120.29 42.21 1119.99 42.0933 1119.72 41.944C1119.45 41.7853 1119.23 41.5753 1119.06 41.314C1118.9 41.0527 1118.81 40.7073 1118.81 40.278C1118.81 39.802 1118.95 39.3913 1119.22 39.046C1119.49 38.6913 1119.87 38.4207 1120.35 38.234C1120.85 38.038 1121.43 37.94 1122.1 37.94C1122.61 37.94 1123.12 37.996 1123.63 38.108C1124.14 38.22 1124.57 38.3787 1124.9 38.584L1124.23 39.914C1123.88 39.6993 1123.52 39.5547 1123.15 39.48C1122.8 39.396 1122.44 39.354 1122.09 39.354C1121.56 39.354 1121.16 39.4333 1120.9 39.592C1120.65 39.7507 1120.52 39.9513 1120.52 40.194C1120.52 40.418 1120.6 40.586 1120.77 40.698C1120.94 40.81 1121.16 40.8987 1121.43 40.964C1121.7 41.0293 1122 41.0853 1122.33 41.132C1122.66 41.1693 1122.99 41.23 1123.32 41.314C1123.65 41.398 1123.95 41.5147 1124.22 41.664C1124.5 41.804 1124.72 42.0047 1124.89 42.266C1125.06 42.5273 1125.14 42.868 1125.14 43.288C1125.14 43.7547 1125 44.1607 1124.72 44.506C1124.45 44.8513 1124.06 45.122 1123.56 45.318C1123.05 45.5047 1122.45 45.598 1121.75 45.598ZM1129.46 45.598C1128.64 45.598 1128.01 45.388 1127.56 44.968C1127.11 44.5387 1126.89 43.9087 1126.89 43.078V36.372H1128.64V43.036C1128.64 43.3907 1128.72 43.666 1128.9 43.862C1129.09 44.058 1129.35 44.156 1129.67 44.156C1130.06 44.156 1130.39 44.0533 1130.65 43.848L1131.14 45.094C1130.94 45.262 1130.68 45.388 1130.39 45.472C1130.09 45.556 1129.78 45.598 1129.46 45.598ZM1125.65 39.48V38.08H1130.64V39.48H1125.65ZM1140.83 45.64C1139.49 45.64 1138.43 45.262 1137.67 44.506C1136.91 43.75 1136.53 42.658 1136.53 41.23V35.7H1138.35V41.16C1138.35 42.168 1138.57 42.9007 1139 43.358C1139.44 43.8153 1140.05 44.044 1140.85 44.044C1141.64 44.044 1142.25 43.8153 1142.68 43.358C1143.11 42.9007 1143.32 42.168 1143.32 41.16V35.7H1145.12V41.23C1145.12 42.658 1144.73 43.75 1143.97 44.506C1143.21 45.262 1142.17 45.64 1140.83 45.64ZM1151.64 45.598C1151.03 45.598 1150.48 45.458 1149.98 45.178C1149.48 44.898 1149.08 44.478 1148.79 43.918C1148.5 43.3487 1148.35 42.63 1148.35 41.762C1148.35 40.8847 1148.49 40.166 1148.77 39.606C1149.06 39.046 1149.45 38.6307 1149.95 38.36C1150.44 38.08 1151.01 37.94 1151.64 37.94C1152.38 37.94 1153.03 38.0987 1153.59 38.416C1154.16 38.7333 1154.6 39.1767 1154.93 39.746C1155.27 40.3153 1155.44 40.9873 1155.44 41.762C1155.44 42.5367 1155.27 43.2133 1154.93 43.792C1154.6 44.3613 1154.16 44.8047 1153.59 45.122C1153.03 45.4393 1152.38 45.598 1151.64 45.598ZM1147.5 48.216V38.024H1149.16V39.788L1149.11 41.776L1149.25 43.764V48.216H1147.5ZM1151.45 44.1C1151.87 44.1 1152.24 44.0067 1152.57 43.82C1152.9 43.6333 1153.17 43.3627 1153.36 43.008C1153.56 42.6533 1153.66 42.238 1153.66 41.762C1153.66 41.2767 1153.56 40.8613 1153.36 40.516C1153.17 40.1613 1152.9 39.8907 1152.57 39.704C1152.24 39.5173 1151.87 39.424 1151.45 39.424C1151.03 39.424 1150.65 39.5173 1150.31 39.704C1149.98 39.8907 1149.71 40.1613 1149.51 40.516C1149.32 40.8613 1149.22 41.2767 1149.22 41.762C1149.22 42.238 1149.32 42.6533 1149.51 43.008C1149.71 43.3627 1149.98 43.6333 1150.31 43.82C1150.65 44.0067 1151.03 44.1 1151.45 44.1ZM1160.26 45.598C1159.54 45.598 1158.89 45.4393 1158.31 45.122C1157.74 44.7953 1157.3 44.3473 1156.97 43.778C1156.64 43.2087 1156.48 42.5367 1156.48 41.762C1156.48 40.9873 1156.64 40.3153 1156.97 39.746C1157.3 39.1767 1157.74 38.7333 1158.31 38.416C1158.89 38.0987 1159.54 37.94 1160.26 37.94C1160.88 37.94 1161.44 38.08 1161.94 38.36C1162.43 38.6307 1162.83 39.046 1163.12 39.606C1163.4 40.166 1163.55 40.8847 1163.55 41.762C1163.55 42.63 1163.41 43.3487 1163.13 43.918C1162.85 44.478 1162.46 44.898 1161.97 45.178C1161.47 45.458 1160.9 45.598 1160.26 45.598ZM1160.47 44.1C1160.89 44.1 1161.26 44.0067 1161.59 43.82C1161.93 43.6333 1162.19 43.3627 1162.39 43.008C1162.59 42.6533 1162.7 42.238 1162.7 41.762C1162.7 41.2767 1162.59 40.8613 1162.39 40.516C1162.19 40.1613 1161.93 39.8907 1161.59 39.704C1161.26 39.5173 1160.89 39.424 1160.47 39.424C1160.05 39.424 1159.67 39.5173 1159.34 39.704C1159.01 39.8907 1158.74 40.1613 1158.54 40.516C1158.34 40.8613 1158.24 41.2767 1158.24 41.762C1158.24 42.238 1158.34 42.6533 1158.54 43.008C1158.74 43.3627 1159.01 43.6333 1159.34 43.82C1159.67 44.0067 1160.05 44.1 1160.47 44.1ZM1162.74 45.5V43.736L1162.81 41.748L1162.67 39.76V35.112H1164.4V45.5H1162.74ZM1171.31 45.5V43.988L1171.21 43.666V41.02C1171.21 40.5067 1171.06 40.11 1170.75 39.83C1170.44 39.5407 1169.98 39.396 1169.35 39.396C1168.93 39.396 1168.52 39.4613 1168.11 39.592C1167.71 39.7227 1167.36 39.9047 1167.08 40.138L1166.4 38.864C1166.8 38.556 1167.28 38.3273 1167.83 38.178C1168.39 38.0193 1168.97 37.94 1169.56 37.94C1170.65 37.94 1171.48 38.2013 1172.07 38.724C1172.67 39.2373 1172.96 40.0353 1172.96 41.118V45.5H1171.31ZM1168.96 45.598C1168.4 45.598 1167.91 45.5047 1167.49 45.318C1167.07 45.122 1166.74 44.856 1166.51 44.52C1166.29 44.1747 1166.17 43.7873 1166.17 43.358C1166.17 42.938 1166.27 42.56 1166.47 42.224C1166.67 41.888 1167.01 41.622 1167.46 41.426C1167.92 41.23 1168.53 41.132 1169.28 41.132H1171.45V42.294H1169.41C1168.81 42.294 1168.41 42.392 1168.2 42.588C1168 42.7747 1167.9 43.008 1167.9 43.288C1167.9 43.6053 1168.02 43.8573 1168.27 44.044C1168.53 44.2307 1168.88 44.324 1169.32 44.324C1169.75 44.324 1170.14 44.226 1170.47 44.03C1170.82 43.834 1171.07 43.5447 1171.21 43.162L1171.51 44.212C1171.34 44.6507 1171.04 44.9913 1170.6 45.234C1170.17 45.4767 1169.62 45.598 1168.96 45.598ZM1178.02 45.598C1177.2 45.598 1176.57 45.388 1176.12 44.968C1175.67 44.5387 1175.45 43.9087 1175.45 43.078V36.372H1177.2V43.036C1177.2 43.3907 1177.29 43.666 1177.46 43.862C1177.65 44.058 1177.91 44.156 1178.23 44.156C1178.63 44.156 1178.95 44.0533 1179.21 43.848L1179.7 45.094C1179.5 45.262 1179.25 45.388 1178.95 45.472C1178.65 45.556 1178.34 45.598 1178.02 45.598ZM1174.22 39.48V38.08H1179.2V39.48H1174.22ZM1184.41 45.598C1183.58 45.598 1182.85 45.4347 1182.23 45.108C1181.61 44.772 1181.13 44.3147 1180.79 43.736C1180.45 43.1573 1180.28 42.4993 1180.28 41.762C1180.28 41.0153 1180.45 40.3573 1180.77 39.788C1181.11 39.2093 1181.57 38.7567 1182.14 38.43C1182.73 38.1033 1183.4 37.94 1184.15 37.94C1184.87 37.94 1185.52 38.0987 1186.09 38.416C1186.66 38.7333 1187.11 39.1813 1187.44 39.76C1187.76 40.3387 1187.93 41.02 1187.93 41.804C1187.93 41.8787 1187.92 41.9627 1187.91 42.056C1187.91 42.1493 1187.91 42.238 1187.9 42.322H1181.67V41.16H1186.97L1186.29 41.524C1186.3 41.0947 1186.21 40.7167 1186.02 40.39C1185.84 40.0633 1185.58 39.8067 1185.25 39.62C1184.93 39.4333 1184.57 39.34 1184.15 39.34C1183.72 39.34 1183.34 39.4333 1183.01 39.62C1182.69 39.8067 1182.44 40.068 1182.26 40.404C1182.08 40.7307 1181.99 41.118 1181.99 41.566V41.846C1181.99 42.294 1182.09 42.6907 1182.3 43.036C1182.5 43.3813 1182.79 43.6473 1183.17 43.834C1183.54 44.0207 1183.97 44.114 1184.45 44.114C1184.87 44.114 1185.25 44.0487 1185.59 43.918C1185.92 43.7873 1186.22 43.582 1186.48 43.302L1187.42 44.38C1187.09 44.772 1186.66 45.0753 1186.15 45.29C1185.64 45.4953 1185.07 45.598 1184.41 45.598Z" fill="white"/>
<rect x="1219" y="21.5" width="121" height="37" rx="18.5" fill="white"/>
<path d="M1250.32 45.5V35.7H1254.35C1255.22 35.7 1255.96 35.84 1256.57 36.12C1257.2 36.4 1257.68 36.8013 1258.02 37.324C1258.35 37.8467 1258.52 38.4673 1258.52 39.186C1258.52 39.9047 1258.35 40.5253 1258.02 41.048C1257.68 41.5613 1257.2 41.958 1256.57 42.238C1255.96 42.5087 1255.22 42.644 1254.35 42.644H1251.32L1252.14 41.818V45.5H1250.32ZM1256.73 45.5L1254.25 41.944H1256.2L1258.69 45.5H1256.73ZM1252.14 42.014L1251.32 41.146H1254.26C1255.07 41.146 1255.67 40.9733 1256.07 40.628C1256.48 40.2827 1256.69 39.802 1256.69 39.186C1256.69 38.5607 1256.48 38.08 1256.07 37.744C1255.67 37.408 1255.07 37.24 1254.26 37.24H1251.32L1252.14 36.344V42.014ZM1263.9 45.598C1263.07 45.598 1262.34 45.4347 1261.72 45.108C1261.1 44.772 1260.62 44.3147 1260.28 43.736C1259.94 43.1573 1259.77 42.4993 1259.77 41.762C1259.77 41.0153 1259.94 40.3573 1260.26 39.788C1260.6 39.2093 1261.06 38.7567 1261.63 38.43C1262.22 38.1033 1262.89 37.94 1263.64 37.94C1264.36 37.94 1265.01 38.0987 1265.58 38.416C1266.15 38.7333 1266.6 39.1813 1266.93 39.76C1267.25 40.3387 1267.42 41.02 1267.42 41.804C1267.42 41.8787 1267.41 41.9627 1267.4 42.056C1267.4 42.1493 1267.4 42.238 1267.39 42.322H1261.16V41.16H1266.46L1265.78 41.524C1265.79 41.0947 1265.7 40.7167 1265.51 40.39C1265.33 40.0633 1265.07 39.8067 1264.74 39.62C1264.42 39.4333 1264.06 39.34 1263.64 39.34C1263.21 39.34 1262.83 39.4333 1262.5 39.62C1262.18 39.8067 1261.93 40.068 1261.75 40.404C1261.57 40.7307 1261.48 41.118 1261.48 41.566V41.846C1261.48 42.294 1261.58 42.6907 1261.79 43.036C1261.99 43.3813 1262.28 43.6473 1262.66 43.834C1263.03 44.0207 1263.46 44.114 1263.94 44.114C1264.36 44.114 1264.74 44.0487 1265.08 43.918C1265.41 43.7873 1265.71 43.582 1265.97 43.302L1266.91 44.38C1266.58 44.772 1266.15 45.0753 1265.64 45.29C1265.13 45.4953 1264.56 45.598 1263.9 45.598ZM1272.49 48.314C1271.79 48.314 1271.12 48.2207 1270.46 48.034C1269.8 47.8567 1269.27 47.5953 1268.85 47.25L1269.63 45.934C1269.96 46.2047 1270.37 46.4193 1270.86 46.578C1271.37 46.746 1271.87 46.83 1272.39 46.83C1273.21 46.83 1273.81 46.6387 1274.19 46.256C1274.58 45.8827 1274.77 45.318 1274.77 44.562V43.232L1274.91 41.538L1274.85 39.844V38.024H1276.52V44.366C1276.52 45.7193 1276.17 46.7133 1275.48 47.348C1274.79 47.992 1273.79 48.314 1272.49 48.314ZM1272.26 45.164C1271.55 45.164 1270.91 45.0147 1270.33 44.716C1269.76 44.408 1269.31 43.9833 1268.97 43.442C1268.64 42.9007 1268.48 42.266 1268.48 41.538C1268.48 40.8193 1268.64 40.1893 1268.97 39.648C1269.31 39.1067 1269.76 38.6867 1270.33 38.388C1270.91 38.0893 1271.55 37.94 1272.26 37.94C1272.9 37.94 1273.47 38.066 1273.97 38.318C1274.47 38.57 1274.87 38.962 1275.17 39.494C1275.48 40.026 1275.64 40.7073 1275.64 41.538C1275.64 42.3687 1275.48 43.0547 1275.17 43.596C1274.87 44.128 1274.47 44.5247 1273.97 44.786C1273.47 45.038 1272.9 45.164 1272.26 45.164ZM1272.53 43.68C1272.97 43.68 1273.36 43.5913 1273.7 43.414C1274.05 43.2273 1274.31 42.9753 1274.5 42.658C1274.7 42.3313 1274.8 41.958 1274.8 41.538C1274.8 41.118 1274.7 40.7493 1274.5 40.432C1274.31 40.1053 1274.05 39.858 1273.7 39.69C1273.36 39.5127 1272.97 39.424 1272.53 39.424C1272.09 39.424 1271.69 39.5127 1271.34 39.69C1270.99 39.858 1270.72 40.1053 1270.53 40.432C1270.34 40.7493 1270.25 41.118 1270.25 41.538C1270.25 41.958 1270.34 42.3313 1270.53 42.658C1270.72 42.9753 1270.99 43.2273 1271.34 43.414C1271.69 43.5913 1272.09 43.68 1272.53 43.68ZM1278.82 45.5V38.024H1280.57V45.5H1278.82ZM1279.7 36.792C1279.37 36.792 1279.1 36.6893 1278.89 36.484C1278.68 36.2787 1278.58 36.0313 1278.58 35.742C1278.58 35.4433 1278.68 35.196 1278.89 35C1279.1 34.7947 1279.37 34.692 1279.7 34.692C1280.03 34.692 1280.29 34.79 1280.5 34.986C1280.71 35.1727 1280.82 35.4107 1280.82 35.7C1280.82 36.008 1280.72 36.2693 1280.51 36.484C1280.31 36.6893 1280.04 36.792 1279.7 36.792ZM1285.17 45.598C1284.55 45.598 1283.95 45.5187 1283.37 45.36C1282.8 45.192 1282.35 44.9913 1282.01 44.758L1282.68 43.428C1283.02 43.6427 1283.42 43.82 1283.89 43.96C1284.35 44.1 1284.82 44.17 1285.29 44.17C1285.84 44.17 1286.23 44.0953 1286.48 43.946C1286.73 43.7967 1286.85 43.596 1286.85 43.344C1286.85 43.1387 1286.77 42.9847 1286.6 42.882C1286.43 42.77 1286.22 42.686 1285.94 42.63C1285.67 42.574 1285.37 42.5227 1285.03 42.476C1284.71 42.4293 1284.38 42.3687 1284.04 42.294C1283.71 42.21 1283.42 42.0933 1283.14 41.944C1282.87 41.7853 1282.65 41.5753 1282.49 41.314C1282.32 41.0527 1282.23 40.7073 1282.23 40.278C1282.23 39.802 1282.37 39.3913 1282.64 39.046C1282.91 38.6913 1283.29 38.4207 1283.77 38.234C1284.27 38.038 1284.85 37.94 1285.52 37.94C1286.03 37.94 1286.54 37.996 1287.05 38.108C1287.56 38.22 1287.99 38.3787 1288.32 38.584L1287.65 39.914C1287.3 39.6993 1286.94 39.5547 1286.57 39.48C1286.22 39.396 1285.87 39.354 1285.51 39.354C1284.98 39.354 1284.58 39.4333 1284.32 39.592C1284.07 39.7507 1283.94 39.9513 1283.94 40.194C1283.94 40.418 1284.03 40.586 1284.19 40.698C1284.36 40.81 1284.58 40.8987 1284.85 40.964C1285.12 41.0293 1285.42 41.0853 1285.75 41.132C1286.08 41.1693 1286.42 41.23 1286.74 41.314C1287.07 41.398 1287.37 41.5147 1287.64 41.664C1287.92 41.804 1288.14 42.0047 1288.31 42.266C1288.48 42.5273 1288.56 42.868 1288.56 43.288C1288.56 43.7547 1288.42 44.1607 1288.14 44.506C1287.87 44.8513 1287.48 45.122 1286.98 45.318C1286.48 45.5047 1285.87 45.598 1285.17 45.598ZM1292.88 45.598C1292.06 45.598 1291.43 45.388 1290.98 44.968C1290.53 44.5387 1290.31 43.9087 1290.31 43.078V36.372H1292.06V43.036C1292.06 43.3907 1292.15 43.666 1292.32 43.862C1292.51 44.058 1292.77 44.156 1293.09 44.156C1293.49 44.156 1293.81 44.0533 1294.07 43.848L1294.56 45.094C1294.36 45.262 1294.11 45.388 1293.81 45.472C1293.51 45.556 1293.2 45.598 1292.88 45.598ZM1289.08 39.48V38.08H1294.06V39.48H1289.08ZM1299.27 45.598C1298.44 45.598 1297.71 45.4347 1297.09 45.108C1296.47 44.772 1295.99 44.3147 1295.65 43.736C1295.31 43.1573 1295.14 42.4993 1295.14 41.762C1295.14 41.0153 1295.3 40.3573 1295.63 39.788C1295.97 39.2093 1296.42 38.7567 1297 38.43C1297.59 38.1033 1298.26 37.94 1299.01 37.94C1299.73 37.94 1300.38 38.0987 1300.95 38.416C1301.52 38.7333 1301.97 39.1813 1302.3 39.76C1302.62 40.3387 1302.79 41.02 1302.79 41.804C1302.79 41.8787 1302.78 41.9627 1302.77 42.056C1302.77 42.1493 1302.77 42.238 1302.76 42.322H1296.53V41.16H1301.83L1301.15 41.524C1301.16 41.0947 1301.07 40.7167 1300.88 40.39C1300.69 40.0633 1300.44 39.8067 1300.11 39.62C1299.79 39.4333 1299.43 39.34 1299.01 39.34C1298.58 39.34 1298.2 39.4333 1297.87 39.62C1297.55 39.8067 1297.3 40.068 1297.12 40.404C1296.94 40.7307 1296.85 41.118 1296.85 41.566V41.846C1296.85 42.294 1296.95 42.6907 1297.16 43.036C1297.36 43.3813 1297.65 43.6473 1298.03 43.834C1298.4 44.0207 1298.83 44.114 1299.31 44.114C1299.73 44.114 1300.11 44.0487 1300.45 43.918C1300.78 43.7873 1301.08 43.582 1301.34 43.302L1302.28 44.38C1301.95 44.772 1301.52 45.0753 1301.01 45.29C1300.5 45.4953 1299.92 45.598 1299.27 45.598ZM1304.47 45.5V38.024H1306.13V40.082L1305.94 39.48C1306.16 38.976 1306.51 38.5933 1306.99 38.332C1307.47 38.0707 1308.07 37.94 1308.79 37.94V39.606C1308.72 39.5873 1308.65 39.578 1308.58 39.578C1308.52 39.5687 1308.45 39.564 1308.39 39.564C1307.72 39.564 1307.2 39.76 1306.8 40.152C1306.41 40.5347 1306.22 41.1087 1306.22 41.874V45.5H1304.47Z" fill="#007CBD"/>
<defs>
<clipPath id="clip0_115_2157">
<rect width="192" height="50" fill="white" transform="translate(100 15)"/>
</clipPath>
</defs>
</svg>
